<?xml version="1.0" encoding="utf-8"?>
<!-- Generator: Adobe Illustrator 18.1.0, SVG Export Plug-In . SVG Version: 6.00 Build 0)  -->
<svg version="1.1" id="Layer_1" xmlns="http://www.w3.org/2000/svg" xmlns:xlink="http://www.w3.org/1999/xlink" x="0px" y="0px"
	 viewBox="0 114.9 595.3 612.7" enable-background="new 0 114.9 595.3 612.7" xml:space="preserve">
<g>
	<g>
		<path fill="#77787B" d="M578.4,116.5c-7.9,0-14.1,5.1-16.3,11.8l-43.9,131.2l-42.2-130.1c-2.3-7.9-8.4-13.5-16.9-13.5h-2.8
			c-8.4,0-14.1,5.6-16.9,13.5l-42.8,130.1l-43.9-130.7c-2.3-7.3-8.4-12.4-16.3-12.4c-9,0-16.9,7.3-16.9,16.3c0,2.3,0.6,4.5,1.1,6.8
			l2.3,6.2c-17.5-19.1-43.4-31-73.8-31c-58,0-99.7,45.1-99.7,98.6v0.6c0,3.9,0.6,7.9,0.6,11.8c-6.8-7.3-16.3-12.4-27-16.3
			c14.1-7.3,27-19.7,27-42.2v-0.6c0-13-4.5-23.1-13-31.5c-10.7-10.7-28.2-16.9-49.6-16.9H19.1c-9.6,0-16.9,7.3-16.9,16.9v156.6
			c0,9.6,7.3,16.9,16.9,16.9h71c40.5,0,68.1-16.9,70.4-48.4c15.8,30.4,47.9,51.8,87.9,51.8c56.9,0,97.4-42.8,99.7-94.1l28.7,80
			c3.4,8.4,9,14.1,17.5,14.1h3.4c7.9,0,14.6-5.1,17.5-14.1l42.2-124.5l42.2,124.5c2.8,8.4,9,14.1,16.9,14.1h3.4
			c7.9,0,14.6-5.6,17.5-14.1l56.3-157.7c0.6-1.7,1.7-4.5,1.7-6.8C595.3,123.9,587.4,116.5,578.4,116.5z M34.9,147.5h47.9
			c21.4,0,33.2,9,33.2,24.2v0.6c0,17.5-14.6,25.9-36,25.9H34.9V147.5z M127.3,252.8c0,16.9-14.1,25.9-36.6,25.9H34.9v-52.4h52.9
			C114.3,226.4,127.3,235.9,127.3,252.8L127.3,252.8z M313.1,214c0,37.2-26.5,67-64.2,67s-64.8-30.4-64.8-67.6v-0.6
			c0-37.2,26.5-67,64.2-67S313.1,176.2,313.1,214L313.1,214z"/>
		<path fill="#77787B" d="M549.7,366.6c-9,0-16.3,7.3-16.3,16.3v74.3l-95.2-123.3c-4.5-5.6-9-9.6-17.5-9.6h-3.4
			c-9.6,0-16.9,7.9-16.9,16.9v83.4L361,336.2c-3.9-8.4-10.1-13.5-19.7-13.5h-1.7c-9.6,0-16.3,5.1-20.3,13.5L263,461.8l-44.5-124.5
			c-3.4-8.4-9-14.1-17.5-14.1h-3.4c-7.9,0-14.6,5.1-17.5,14.1L138,461.8L95.7,337.3c-2.8-8.4-9-14.1-16.9-14.1h-3.4
			c-7.9,0-14.6,5.6-17.5,14.1L1.7,495c-1.1,1.7-1.7,4.5-1.7,6.8c0,9,7.9,15.8,16.3,15.8c7.9,0,14.1-5.1,16.3-11.8l43.9-131.2
			l42.8,130.1c2.3,7.9,8.4,13.5,16.9,13.5h2.3c8.4,0,14.1-5.6,16.9-13.5l42.8-130.1l43.9,131.2c2.3,7.3,8.4,12.4,16.3,12.4
			c2.3,0,4.5-0.6,6.8-1.1c5.1-1.1,9.6-4.5,11.8-10.1l15.8-36.6h92.4l15.2,34.4c1.7,6.8,6.8,11.8,14.1,13c0,0,0,0,0.6,0s1.1,0,1.7,0
			l0,0c0,0,0,0,0.6,0c9,0,15.8-7.3,15.8-15.8v-0.6V380.1l98,126.7c4.5,6.2,9.6,10.1,17.5,10.1h1.1c9,0,16.3-7.3,16.3-16.3V382.4
			C566,373.9,558.7,366.6,549.7,366.6z M305.8,439.8l33.2-77.2l33.2,77.2H305.8z"/>
	</g>
	<g>
		<path fill="#00AEEF" d="M16.3,563.1c-8.4,0-15.2-6.8-15.2-15.2s6.8-15.2,15.2-15.2h3.4h49c24.2,0,43.4,7.3,55.8,19.1
			c10.7,10.1,16.3,24.8,16.3,41.7v0.6c0,31-18,49.6-43.9,57.4l37.2,46.7c3.4,3.9,5.6,7.9,5.6,13c0,9.6-7.9,15.8-16.3,15.8
			c-7.9,0-13-3.4-16.3-9l-46.7-59.7c0,0-27-29.8,6.8-29.8c24.2,0,39.4-13,39.4-32.1v-0.6c0-20.8-14.6-32.1-40-32.1H36.6H20.8
			L16.3,563.1z"/>
		<path fill="#00AEEF" d="M156,547.9c0-9.6,7.3-16.9,16.9-16.9s16.9,7.3,16.9,16.9v162.2c0,9.6-7.3,16.9-16.9,16.9
			s-16.9-7.3-16.9-16.9V547.9z"/>
		<path fill="#00AEEF" d="M207.2,547.9c0-9.6,7.3-16.9,16.9-16.9s16.9,7.3,16.9,16.9v146.4h64.8c8.4,0,15.2,6.8,15.2,15.2
			s-6.8,15.2-15.2,15.2h-81.7c-9.6,0-16.9-7.3-16.9-16.9V547.9z"/>
		<path fill="#00AEEF" d="M576.7,531c-7.3,0-12.4,3.9-16.3,10.1l-54.6,77.7l-51.8-75.5c-3.9-5.6-9-10.1-15.8-10.1
			c-1.1-0.6-2.8-0.6-3.9-0.6h-83.9c-9.6,0-16.9,7.3-16.9,16.9v158.8c0,9.6,7.3,16.9,16.9,16.9h85c8.4,0,15.2-6.8,15.2-15.2
			c0-8.4-6.8-15.2-15.2-15.2h-68.1v-51.8h54.1c8.4,0,15.2-6.8,15.2-14.6c0-8.4-6.8-15.2-15.2-15.2h-54.1v-50.1h58l63.6,87.9v59.7
			c0,9.6,7.3,16.9,16.9,16.9c9.6,0,16.9-7.3,16.9-16.9v-60.8l65.9-90.1c2.3-3.4,4.5-7.3,4.5-12.4C593,538.4,586.8,531,576.7,531z"/>
	</g>
</g>
</svg>
