<?xml version="1.0" encoding="utf-8"?>
<!-- Generator: Adobe Illustrator 18.1.0, SVG Export Plug-In . SVG Version: 6.00 Build 0)  -->
<svg version="1.1" xmlns="http://www.w3.org/2000/svg" xmlns:xlink="http://www.w3.org/1999/xlink" x="0px" y="0px"
	 viewBox="0 0 298.7 35" enable-background="new 0 0 298.7 35" xml:space="preserve">
<g id="Covers_x2B_footers">
</g>
<g id="Screens">
</g>
<g id="Design">
</g>
<g id="text">
	<g>
		<g>
			<path fill="#FFFFFF" d="M105.3,3.2c0-1.6-1.4-2.8-2.9-2.8c-1.4,0-2.5,0.9-2.9,2.1l-7.8,23.3L84,2.6c-0.4-1.4-1.5-2.4-3-2.4h-0.4
				c-1.5,0-2.5,1-3,2.4L70,25.8L62.2,2.5c-0.4-1.3-1.5-2.2-2.9-2.2c-1.6,0-3,1.3-3,2.9c0,0.4,0.1,0.8,0.2,1.2l0.4,1.1
				C53.8,2.2,49.2,0,43.8,0C33.5,0,26.1,8,26.1,17.5v0.1c0,0.7,0.1,1.4,0.1,2.1c-1.2-1.3-2.9-2.2-4.8-2.9c2.5-1.3,4.8-3.5,4.8-7.5
				V9.2c0-2.3-0.8-4.1-2.3-5.6c-1.9-1.9-5-3-8.8-3H3c-1.7,0-3,1.3-3,3v27.8c0,1.7,1.3,3,3,3h12.6c7.2,0,12.1-3,12.5-8.6
				c2.8,5.4,8.5,9.2,15.6,9.2c10.1,0,17.3-7.6,17.7-16.7l5.1,14.2c0.6,1.5,1.6,2.5,3.1,2.5h0.6c1.4,0,2.6-0.9,3.1-2.5l7.5-22.1
				l7.5,22.1c0.5,1.5,1.6,2.5,3,2.5h0.6c1.4,0,2.6-1,3.1-2.5l10-28C105.1,4.1,105.3,3.6,105.3,3.2z M5.8,5.9h8.5
				c3.8,0,5.9,1.6,5.9,4.3v0.1c0,3.1-2.6,4.6-6.4,4.6H5.8V5.9z M22.2,24.5c0,3-2.5,4.6-6.5,4.6H5.8v-9.3h9.4
				C19.9,19.9,22.2,21.6,22.2,24.5L22.2,24.5z M55.2,17.6c0,6.6-4.7,11.9-11.4,11.9s-11.5-5.4-11.5-12v-0.1
				c0-6.6,4.7-11.9,11.4-11.9S55.2,10.9,55.2,17.6L55.2,17.6z"/>
			<path fill="#FFFFFF" d="M196.6,7.9c-1.6,0-2.9,1.3-2.9,2.9V24L176.8,2.2c-0.8-1-1.6-1.7-3.1-1.7h-0.6c-1.7,0-3,1.4-3,3v14.8
				l-7-15.7c-0.7-1.5-1.8-2.4-3.5-2.4h-0.3c-1.7,0-2.9,0.9-3.6,2.4l-10,22.3l-7.9-22.1c-0.6-1.5-1.6-2.5-3.1-2.5h-0.6
				c-1.4,0-2.6,0.9-3.1,2.5l-7.5,22.1L116,2.7c-0.5-1.5-1.6-2.5-3-2.5h-0.6c-1.4,0-2.6,1-3.1,2.5l-10,28c-0.1,0.3-0.3,0.8-0.3,1.2
				c0,1.6,1.4,2.8,2.9,2.8c1.4,0,2.5-0.9,2.9-2.1l7.8-23.3l7.6,23.1c0.4,1.4,1.5,2.4,3,2.4h0.4c1.5,0,2.5-1,3-2.4l7.6-23.1l7.8,23.2
				c0.4,1.3,1.5,2.2,2.9,2.2c0.4,0,0.8-0.1,1.2-0.2c0.9-0.2,1.7-0.8,2.1-1.8l2.8-6.5h16.4l2.7,6.1c0.3,1.2,1.2,2.1,2.5,2.3
				c0,0,0,0,0.1,0c0.1,0,0.2,0,0.3,0c0,0,0,0,0,0c0,0,0,0,0.1,0c1.6,0,2.8-1.3,2.8-2.8c0,0,0-0.1,0-0.1V10.3l17.4,22.5
				c0.8,1.1,1.7,1.8,3.1,1.8h0.2c1.6,0,2.9-1.3,2.9-2.9V10.8C199.5,9.2,198.2,7.9,196.6,7.9z M153.3,21l5.9-13.7l5.9,13.7H153.3z"/>
		</g>
		<path fill="#FFFFFF" d="M196.3,5.7c-1.5,0-2.7-1.2-2.7-2.7s1.2-2.7,2.7-2.7l0.6,0h8.7c4.3,0,7.7,1.3,9.9,3.4
			c1.8,1.9,2.8,4.4,2.8,7.4v0.1c0,5.5-3.2,8.8-7.8,10.2l6.6,8.3c0.6,0.7,1,1.4,1,2.3c0,1.7-1.4,2.8-2.9,2.8c-1.4,0-2.3-0.6-2.9-1.6
			L204,22.6c0,0-4.8-5.3,1.2-5.3c4.3,0,7-2.3,7-5.7v-0.1c0-3.7-2.6-5.7-7.1-5.7h-5.2l-2.8,0L196.3,5.7z"/>
		<path fill="#FFFFFF" d="M221,3c0-1.7,1.3-3,3-3c1.7,0,3,1.3,3,3v28.8c0,1.7-1.3,3-3,3c-1.7,0-3-1.3-3-3V3z"/>
		<path fill="#FFFFFF" d="M230.2,3c0-1.7,1.3-3,3-3c1.7,0,3,1.3,3,3v26h11.5c1.5,0,2.7,1.2,2.7,2.7c0,1.5-1.2,2.7-2.7,2.7h-14.5
			c-1.7,0-3-1.3-3-3V3z"/>
		<path fill="#FFFFFF" d="M295.8,0c-1.3,0-2.2,0.7-2.9,1.8l-9.7,13.8L274,2.2c-0.7-1-1.6-1.8-2.8-1.8c-0.2-0.1-0.5-0.1-0.7-0.1
			h-14.8c-1.7,0-3,1.3-3,3v28.2c0,1.7,1.3,3,3,3h15.1c1.5,0,2.7-1.2,2.7-2.7c0-1.5-1.2-2.7-2.7-2.7h-12.1V20h9.6
			c1.5,0,2.7-1.2,2.7-2.6c0-1.5-1.2-2.7-2.7-2.7h-9.6V5.7h10.3l11.3,15.6v10.6c0,1.7,1.3,3,3,3c1.7,0,3-1.3,3-3V21.1l11.7-16
			c0.4-0.6,0.8-1.3,0.8-2.2C298.7,1.3,297.5,0,295.8,0z"/>
	</g>
</g>
</svg>
