<?xml version="1.0" encoding="utf-8"?>
<!-- Generator: Adobe Illustrator 18.1.0, SVG Export Plug-In . SVG Version: 6.00 Build 0)  -->
<svg version="1.1" id="Layer_1" xmlns="http://www.w3.org/2000/svg" xmlns:xlink="http://www.w3.org/1999/xlink" x="0px" y="0px"
	 viewBox="197.2 311.3 187.8 228.2" enable-background="new 197.2 311.3 187.8 228.2" xml:space="preserve">
<g id="Covers_x2B_footers">
</g>
<g id="Screens">
</g>
<g id="Design">
</g>
<g id="text">
	<path fill="#FFFFFF" d="M379.8,311.8c-2.5,0-4.4,1.6-5.1,3.7l-13.8,41.3l-13.5-40.9c-0.7-2.5-2.7-4.3-5.3-4.3h-0.7
		c-2.7,0-4.4,1.8-5.3,4.3l-13.5,40.9l-13.8-41.1c-0.7-2.3-2.7-3.9-5.1-3.9c-2.8,0-5.3,2.3-5.3,5.1c0,0.7,0.2,1.4,0.4,2.1l0.7,1.9
		c-5.5-6-13.6-9.7-23.2-9.7c-18.4,0-31.4,14.2-31.4,31v0.2c0,1.2,0.2,2.5,0.2,3.7c-2.1-2.3-5.1-3.9-8.5-5.1
		c4.4-2.3,8.5-6.2,8.5-13.3v-0.2c0-4.1-1.4-7.3-4.1-9.9c-3.4-3.4-8.9-5.3-15.6-5.3h-21.6c-3,0-5.3,2.3-5.3,5.3v49.1
		c0,3,2.3,5.3,5.3,5.3h22.3c12.8,0,21.4-5.3,22.1-15.2c5,9.6,15.1,16.3,27.6,16.3c17.9,0,30.6-13.5,31.4-29.6l9,25.2
		c1.1,2.7,2.8,4.4,5.5,4.4h1.1c2.5,0,4.6-1.6,5.5-4.4l13.3-39.2l13.3,39.2c0.9,2.7,2.8,4.4,5.3,4.4h1.1c2.5,0,4.6-1.8,5.5-4.4
		l17.7-49.6c0.2-0.5,0.5-1.4,0.5-2.1C385.2,313.9,382.7,311.8,379.8,311.8z M208.9,321.6h15.1c6.7,0,10.5,2.8,10.5,7.6v0.2
		c0,5.5-4.6,8.1-11.3,8.1h-14.4v-15.9H208.9z M237.9,354.5c0,5.3-4.4,8.1-11.5,8.1h-17.4v-16.5h16.7
		C233.9,346.4,237.9,349.4,237.9,354.5L237.9,354.5z M296.4,342.3c0,11.7-8.3,21.1-20.2,21.1c-11.9,0-20.4-9.6-20.4-21.3v-0.2
		c0-11.7,8.3-21.1,20.2-21.1C287.9,320.8,296.4,330.4,296.4,342.3L296.4,342.3z"/>
	<path fill="#FFFFFF" d="M370.8,390.3c-2.8,0-5.1,2.3-5.1,5.1v23.4L335.7,380c-1.4-1.8-2.8-3-5.5-3h-1.1c-3,0-5.3,2.5-5.3,5.3v26.2
		l-12.4-27.8c-1.2-2.7-3.2-4.3-6.2-4.3h-0.5c-3,0-5.1,1.6-6.4,4.3l-17.7,39.5l-14-39.2c-1.1-2.7-2.8-4.4-5.5-4.4h-1.1
		c-2.5,0-4.6,1.6-5.5,4.4l-13.3,39.2L228,381.1c-0.9-2.7-2.8-4.4-5.3-4.4h-1.1c-2.5,0-4.6,1.8-5.5,4.4l-17.7,49.6
		c-0.2,0.5-0.5,1.4-0.5,2.1c0,2.8,2.5,5,5.1,5c2.5,0,4.4-1.6,5.1-3.7l13.8-41.3l13.5,40.9c0.7,2.5,2.7,4.3,5.3,4.3h0.7
		c2.7,0,4.4-1.8,5.3-4.3l13.5-40.9l13.8,41.1c0.7,2.3,2.7,3.9,5.1,3.9c0.7,0,1.4-0.2,2.1-0.4c1.6-0.4,3-1.4,3.7-3.2l5-11.5h29.1
		l4.8,10.8c0.5,2.1,2.1,3.7,4.4,4.1c0,0,0,0,0.2,0s0.4,0,0.5,0l0,0c0,0,0,0,0.2,0c2.8,0,5-2.3,5-5v-0.2v-37.9l30.8,39.9
		c1.4,1.9,3,3.2,5.5,3.2h0.4c2.8,0,5.1-2.3,5.1-5.1v-37C375.9,392.6,373.6,390.3,370.8,390.3z M294.1,413.5l10.5-24.3l10.5,24.3
		H294.1z"/>
	<g>
		<path fill="#FFFFFF" d="M219.7,442.6h-15.4h-1.1c-2.7,0-4.8,2.1-4.8,4.8s2.1,4.8,4.8,4.8h1.4h5h9.2c8,0,12.6,3.5,12.6,10.1v0.2
			c0,6.2-4.8,10.1-12.4,10.1c-10.8,0-2.1,9.4-2.1,9.4l14.7,18.8c1.2,1.6,2.8,2.8,5.1,2.8c2.7,0,5.1-1.9,5.1-5c0-1.6-0.7-2.8-1.8-4.1
			l-11.7-14.7c8.1-2.5,13.8-8.3,13.8-18.1v-0.2c0-5.3-1.8-9.7-5-13.1C233.2,444.9,227.3,442.6,219.7,442.6z"/>
		<path fill="#FFFFFF" d="M252.3,442c-3,0-5.3,2.3-5.3,5.3v51c0,3,2.3,5.3,5.3,5.3s5.3-2.3,5.3-5.3v-51
			C257.6,444.5,255.3,442,252.3,442z"/>
		<path fill="#FFFFFF" d="M294.1,493.6h-20.4v-46.1c0-3-2.3-5.3-5.3-5.3c-3,0-5.3,2.3-5.3,5.3v50.3c0,3,2.3,5.3,5.3,5.3h25.7
			c2.7,0,4.8-2.1,4.8-4.8C299.1,495.7,296.8,493.6,294.1,493.6z"/>
		<path fill="#FFFFFF" d="M379.3,442c-2.3,0-3.9,1.2-5.1,3.2L357,469.7l-16.3-23.7c-1.2-1.8-2.8-3.2-5-3.2c-0.4-0.2-0.9-0.2-1.2-0.2
			h-26.2c-3,0-5.3,2.3-5.3,5.3v50c0,3,2.3,5.3,5.3,5.3h26.6c2.7,0,4.8-2.1,4.8-4.8s-2.1-4.8-4.8-4.8h-21.4v-16.3h17
			c2.7,0,4.8-2.1,4.8-4.6c0-2.7-2.1-4.8-4.8-4.8h-17v-15.8h18.2l20,27.6v18.8c0,3,2.3,5.3,5.3,5.3c3,0,5.3-2.3,5.3-5.3v-19
			l20.7-28.3c0.7-1.1,1.4-2.3,1.4-3.9C384.5,444.3,382.5,442,379.3,442z"/>
	</g>
	<g>
		<path fill="#FFFFFF" d="M197.7,537l7.1-15.9c0.4-0.9,1.1-1.4,1.9-1.4h0.2c0.9,0,1.6,0.5,1.9,1.4L216,537c0.2,0.2,0.2,0.5,0.2,0.7
			c0,0.9-0.7,1.6-1.6,1.6s-1.4-0.5-1.6-1.2l-1.6-3.5H202l-1.6,3.7c-0.4,0.7-0.9,1.1-1.6,1.1c-0.9,0-1.6-0.7-1.6-1.6
			C197.5,537.5,197.5,537.2,197.7,537z M210.3,531.5l-3.4-7.8l-3.4,7.8H210.3z"/>
		<path fill="#FFFFFF" d="M220,521.6c0-0.9,0.7-1.8,1.8-1.8h6.9c2.5,0,4.3,0.7,5.5,1.9c1.1,1.1,1.6,2.5,1.6,4.1l0,0
			c0,3-1.8,5-4.4,5.7l3.7,4.6c0.4,0.4,0.5,0.7,0.5,1.2c0,0.9-0.9,1.6-1.6,1.6c-0.7,0-1.2-0.4-1.6-0.9l-4.6-6h-4.3v5.1
			c0,0.9-0.7,1.6-1.6,1.6s-1.8-0.7-1.8-1.6v-15.6H220z M228.4,529.4c2.5,0,3.9-1.2,3.9-3.2l0,0c0-2.1-1.4-3.2-4.1-3.2h-5v6.6h5.1
			V529.4z"/>
		<path fill="#FFFFFF" d="M239.2,529.5L239.2,529.5c0-5.5,4.1-10.1,9.9-10.1c3,0,5,0.9,6.6,2.1c0.4,0.4,0.7,0.7,0.7,1.4
			c0,0.9-0.7,1.6-1.6,1.6c-0.5,0-0.9-0.2-1.1-0.4c-1.2-1.1-2.8-1.8-4.6-1.8c-3.7,0-6.4,3-6.4,6.7l0,0c0,3.7,2.7,6.9,6.4,6.9
			c1.9,0,3.4-0.7,4.8-1.8c0.2-0.2,0.5-0.4,1.1-0.4c0.9,0,1.6,0.7,1.6,1.6c0,0.5-0.2,0.9-0.5,1.2c-1.8,1.6-3.9,2.7-6.9,2.7
			C243.2,539.5,239.2,535,239.2,529.5z"/>
		<path fill="#FFFFFF" d="M260.3,521.4c0-0.9,0.7-1.6,1.8-1.6c0.9,0,1.6,0.7,1.6,1.6v6.6h9.2v-6.6c0-0.9,0.7-1.6,1.6-1.6
			s1.8,0.7,1.8,1.6v16.1c0,0.9-0.7,1.6-1.8,1.6c-0.9,0-1.6-0.7-1.6-1.6V531h-9.2v6.6c0,0.9-0.7,1.6-1.6,1.6s-1.8-0.7-1.8-1.6V521.4z
			"/>
		<path fill="#FFFFFF" d="M281.3,521.4c0-0.9,0.7-1.6,1.8-1.6c0.9,0,1.6,0.7,1.6,1.6v16.1c0,0.9-0.7,1.6-1.6,1.6s-1.8-0.7-1.8-1.6
			V521.4z"/>
		<path fill="#FFFFFF" d="M294.6,523H290c-0.9,0-1.6-0.7-1.6-1.6c0-0.9,0.7-1.6,1.6-1.6h12.8c0.9,0,1.6,0.7,1.6,1.6
			c0,0.9-0.7,1.6-1.6,1.6H298v14.5c0,0.9-0.7,1.6-1.8,1.6c-0.9,0-1.8-0.7-1.8-1.6V523H294.6z"/>
		<path fill="#FFFFFF" d="M307.7,537.5v-15.8c0-0.9,0.7-1.8,1.8-1.8h11.2c0.9,0,1.6,0.7,1.6,1.6c0,0.9-0.7,1.6-1.6,1.6h-9.6v5h8.3
			c0.9,0,1.6,0.7,1.6,1.6c0,0.9-0.7,1.4-1.6,1.4h-8.3v5.1h9.7c0.9,0,1.6,0.7,1.6,1.6c0,0.9-0.7,1.6-1.6,1.6h-11.3
			C308.4,539.1,307.7,538.4,307.7,537.5z"/>
		<path fill="#FFFFFF" d="M325.3,529.5L325.3,529.5c0-5.5,4.1-10.1,9.9-10.1c3,0,5,0.9,6.6,2.1c0.4,0.4,0.7,0.7,0.7,1.4
			c0,0.9-0.7,1.6-1.6,1.6c-0.5,0-0.9-0.2-1.1-0.4c-1.2-1.1-2.8-1.8-4.6-1.8c-3.7,0-6.4,3-6.4,6.7l0,0c0,3.7,2.7,6.9,6.4,6.9
			c1.9,0,3.4-0.7,4.8-1.8c0.2-0.2,0.5-0.4,1.1-0.4c0.9,0,1.6,0.7,1.6,1.6c0,0.5-0.2,0.9-0.5,1.2c-1.8,1.6-3.9,2.7-6.9,2.7
			C329.5,539.5,325.3,535,325.3,529.5z"/>
		<path fill="#FFFFFF" d="M351.3,523h-4.6c-0.9,0-1.6-0.7-1.6-1.6c0-0.9,0.7-1.6,1.6-1.6h12.8c0.9,0,1.6,0.7,1.6,1.6
			c0,0.9-0.7,1.6-1.6,1.6h-4.8v14.5c0,0.9-0.7,1.6-1.8,1.6c-0.9,0-1.8-0.7-1.8-1.6V523H351.3z"/>
		<path fill="#FFFFFF" d="M363.5,537c-0.4-0.4-0.7-0.7-0.7-1.2c0-0.9,0.7-1.6,1.6-1.6c0.5,0,0.7,0.2,1.1,0.4
			c1.6,1.2,3.4,1.9,5.3,1.9c1.9,0,3.4-1.1,3.4-2.5l0,0c0-1.4-0.7-2.1-4.4-3c-4.1-1.1-6.4-2.1-6.4-5.7l0,0c0-3.4,2.8-5.7,6.6-5.7
			c2.5,0,4.4,0.7,6,1.8c0.4,0.2,0.7,0.7,0.7,1.4c0,0.9-0.7,1.6-1.6,1.6c-0.4,0-0.5,0-0.9-0.2c-1.4-0.9-2.8-1.4-4.4-1.4
			c-1.9,0-3.2,1.1-3.2,2.3l0,0c0,1.4,0.9,2.1,4.6,3c4.1,1.1,6.2,2.5,6.2,5.7l0,0c0,3.5-2.8,5.7-6.9,5.7
			C368.2,539.5,365.7,538.6,363.5,537z"/>
	</g>
</g>
</svg>
