<?xml version="1.0" encoding="utf-8"?>
<!-- Generator: Adobe Illustrator 18.1.0, SVG Export Plug-In . SVG Version: 6.00 Build 0)  -->
<svg version="1.1" id="Layer_1" xmlns="http://www.w3.org/2000/svg" xmlns:xlink="http://www.w3.org/1999/xlink" x="0px" y="0px"
	 viewBox="197 298.5 187.5 250.5" enable-background="new 197 298.5 187.5 250.5" xml:space="preserve">
<g id="Covers_x2B_footers">
</g>
<g id="Screens">
</g>
<g id="Design">
</g>
<g id="text">
	<path fill="#FFFFFF" d="M379.3,299.1c-2.5,0-4.4,1.6-5.1,3.7l-13.8,41.3l-13.5-40.9c-0.7-2.5-2.7-4.3-5.3-4.3h-0.7
		c-2.7,0-4.4,1.8-5.3,4.3l-13.5,40.9L308.3,303c-0.7-2.3-2.7-3.9-5.1-3.9c-2.8,0-5.3,2.3-5.3,5.1c0,0.7,0.2,1.4,0.4,2.1l0.7,1.9
		c-5.5-6-13.6-9.7-23.2-9.7c-18.4,0-31.4,14.2-31.4,31v0.2c0,1.2,0.2,2.5,0.2,3.7c-2.1-2.3-5.1-3.9-8.5-5.1
		c4.4-2.3,8.5-6.2,8.5-13.3v-0.2c0-4.1-1.4-7.3-4.1-9.9c-3.4-3.4-8.9-5.3-15.6-5.3h-21.6c-3,0-5.3,2.3-5.3,5.3v49.3
		c0,3,2.3,5.3,5.3,5.3h22.3c12.8,0,21.4-5.3,22.1-15.2c5,9.6,15.1,16.3,27.6,16.3c17.9,0,30.6-13.5,31.4-29.6l9,25.2
		c1.1,2.7,2.8,4.4,5.5,4.4h1.1c2.5,0,4.6-1.6,5.5-4.4l13.3-39.2l13.3,39.2c0.9,2.7,2.8,4.4,5.3,4.4h1.1c2.5,0,4.6-1.8,5.5-4.4
		l17.7-49.6c0.2-0.5,0.5-1.4,0.5-2.1C384.6,301.2,382.1,299.1,379.3,299.1z M208.3,308.8h15.1c6.7,0,10.5,2.8,10.5,7.6v0.2
		c0,5.5-4.6,8.1-11.3,8.1h-14.4v-15.9H208.3z M237.4,341.8c0,5.3-4.4,8.1-11.5,8.1h-17.4v-16.5h16.7
		C233.3,333.6,237.4,336.6,237.4,341.8L237.4,341.8z M295.9,329.5c0,11.7-8.3,21.1-20.2,21.1c-11.9,0-20.4-9.6-20.4-21.3v-0.2
		c0-11.7,8.3-21.1,20.2-21.1C287.4,308.1,295.9,317.7,295.9,329.5L295.9,329.5z"/>
	<path fill="#FFFFFF" d="M370.1,377.5c-2.8,0-5.1,2.3-5.1,5.1v23.4L335,367.3c-1.4-1.8-2.8-3-5.5-3h-1.1c-3,0-5.3,2.5-5.3,5.3v26.2
		L310.8,368c-1.2-2.7-3.2-4.3-6.2-4.3H304c-3,0-5.1,1.6-6.4,4.3l-17.7,39.5l-14-39.2c-1.1-2.7-2.8-4.4-5.5-4.4h-1.1
		c-2.5,0-4.6,1.6-5.5,4.4l-13.3,39.2l-13.3-39.2c-0.9-2.7-2.8-4.4-5.3-4.4h-1.1c-2.5,0-4.6,1.8-5.5,4.4l-17.7,49.6
		c-0.2,0.5-0.5,1.4-0.5,2.1c0,2.8,2.5,5,5.1,5c2.5,0,4.4-1.6,5.1-3.7l13.8-41.3l13.5,40.9c0.7,2.5,2.7,4.3,5.3,4.3h0.7
		c2.7,0,4.4-1.8,5.3-4.3l13.5-40.9l13.8,41.1c0.7,2.3,2.7,3.9,5.1,3.9c0.7,0,1.4-0.2,2.1-0.4c1.6-0.4,3-1.4,3.7-3.2l5-11.5h29.1
		l4.8,10.8c0.5,2.1,2.1,3.7,4.4,4.1c0,0,0,0,0.2,0c0.2,0,0.4,0,0.5,0l0,0c0,0,0,0,0.2,0c2.8,0,5-2.3,5-5v-0.2v-37.9l30.8,39.9
		c1.4,1.9,3,3.2,5.5,3.2h0.4c2.8,0,5.1-2.3,5.1-5.1v-37C375.4,379.8,373.1,377.5,370.1,377.5z M293.6,400.7l10.5-24.3l10.5,24.3
		H293.6z"/>
	<g>
		<path fill="#FFFFFF" d="M219,429.8h-15.4h-1.1c-2.7,0-4.8,2.1-4.8,4.8s2.1,4.8,4.8,4.8h1.4h5h9.2c8,0,12.6,3.5,12.6,10.1v0.2
			c0,6.2-4.8,10.1-12.4,10.1c-10.8,0-2.1,9.4-2.1,9.4l14.7,18.8c1.2,1.6,2.8,2.8,5.1,2.8c2.7,0,5.1-1.9,5.1-5c0-1.6-0.7-2.8-1.8-4.1
			L227.7,467c8.1-2.5,13.8-8.3,13.8-18.1v-0.2c0-5.3-1.8-9.7-5-13.1C232.6,432.1,226.6,429.8,219,429.8z"/>
		<path fill="#FFFFFF" d="M251.8,429.3c-3,0-5.3,2.3-5.3,5.3v51c0,3,2.3,5.3,5.3,5.3s5.3-2.3,5.3-5.3v-51
			C257.1,431.8,254.8,429.3,251.8,429.3z"/>
		<path fill="#FFFFFF" d="M293.6,480.8h-20.4v-46.1c0-3-2.3-5.3-5.3-5.3s-5.3,2.3-5.3,5.3v50.5c0,3,2.3,5.3,5.3,5.3h25.7
			c2.7,0,4.8-2.1,4.8-4.8S296.2,480.8,293.6,480.8z"/>
		<path fill="#FFFFFF" d="M378.8,429.3c-2.3,0-3.9,1.2-5.1,3.2l-17.2,24.4l-16.3-23.7c-1.2-1.8-2.8-3.2-5-3.2
			c-0.4-0.2-0.9-0.2-1.2-0.2h-26.2c-3,0-5.3,2.3-5.3,5.3v50c0,3,2.3,5.3,5.3,5.3h26.8c2.7,0,4.8-2.1,4.8-4.8s-2.1-4.8-4.8-4.8h-21.4
			v-16.3h17c2.7,0,4.8-2.1,4.8-4.6c0-2.7-2.1-4.8-4.8-4.8h-17v-15.8h18.2l20,27.6v18.8c0,3,2.3,5.3,5.3,5.3c3,0,5.3-2.3,5.3-5.3v-19
			l20.7-28.3c0.7-1.1,1.4-2.3,1.4-3.9C383.9,431.6,381.8,429.3,378.8,429.3z"/>
	</g>
	<g>
		<g>
			<path fill="#FFFFFF" d="M197.7,511.7c0-0.9,0.7-1.4,1.4-1.4h5.8c1.8,0,3.4,0.5,4.3,1.4c0.7,0.7,1.1,1.6,1.1,2.7l0,0
				c0,1.9-1.1,3-2.3,3.5c1.9,0.7,3.2,1.8,3.2,3.9l0,0c0,2.8-2.3,4.4-6,4.4h-6c-0.9,0-1.4-0.5-1.4-1.4V511.7z M204.5,517.1
				c1.8,0,3-0.7,3-2.1l0,0c0-1.2-1.1-2.1-2.8-2.1h-4.1v4.3H204.5z M205.3,523.9c1.9,0,3.2-0.7,3.2-2.1l0,0c0-1.4-1.1-2.1-3.4-2.1
				h-4.4v4.4h4.6V523.9z"/>
			<path fill="#FFFFFF" d="M214.2,519.6v-8c0-0.7,0.7-1.4,1.4-1.4c0.7,0,1.4,0.5,1.4,1.4v7.8c0,3,1.6,4.6,4.1,4.6
				c2.5,0,4.1-1.4,4.1-4.4v-8c0-0.7,0.7-1.4,1.4-1.4s1.4,0.5,1.4,1.4v7.8c0,4.8-2.7,7.3-6.9,7.3
				C216.9,526.7,214.2,524.2,214.2,519.6z"/>
			<path fill="#FFFFFF" d="M232.1,511.7c0-0.7,0.7-1.4,1.4-1.4c0.7,0,1.4,0.5,1.4,1.4v13.5c0,0.7-0.7,1.4-1.4,1.4
				c-0.9,0-1.4-0.7-1.4-1.4V511.7z"/>
			<path fill="#FFFFFF" d="M239.2,511.7c0-0.7,0.7-1.4,1.4-1.4c0.7,0,1.4,0.5,1.4,1.4v12.2h7.3c0.7,0,1.2,0.5,1.2,1.2
				c0,0.7-0.5,1.2-1.2,1.2h-8.7c-0.9,0-1.4-0.5-1.4-1.4L239.2,511.7L239.2,511.7z"/>
			<path fill="#FFFFFF" d="M253.3,511.7c0-0.9,0.7-1.4,1.4-1.4h4.6c5.1,0,8.5,3.5,8.5,8l0,0c0,4.6-3.5,8-8.5,8h-4.6
				c-0.9,0-1.4-0.5-1.4-1.4V511.7z M259.4,523.9c3.4,0,5.7-2.3,5.7-5.5l0,0c0-3.2-2.1-5.5-5.7-5.5h-3.2v11H259.4L259.4,523.9z"/>
			<path fill="#FFFFFF" d="M271.6,511.7c0-0.7,0.7-1.4,1.4-1.4c0.7,0,1.4,0.5,1.4,1.4v13.5c0,0.7-0.7,1.4-1.4,1.4
				c-0.9,0-1.4-0.7-1.4-1.4V511.7z"/>
			<path fill="#FFFFFF" d="M278.7,511.7c0-0.7,0.7-1.4,1.4-1.4h0.4c0.7,0,1.1,0.4,1.4,0.9l8,10.5v-9.9c0-0.7,0.7-1.4,1.4-1.4
				c0.7,0,1.4,0.5,1.4,1.4v13.5c0,0.7-0.5,1.4-1.4,1.4h-0.2c-0.7,0-1.1-0.4-1.4-0.9l-8.3-10.8v10.3c0,0.7-0.7,1.4-1.4,1.4
				c-0.7,0-1.4-0.7-1.4-1.4v-13.5H278.7z"/>
			<path fill="#FFFFFF" d="M296.2,518.4L296.2,518.4c0-4.6,3.5-8.3,8.3-8.3c2.5,0,4.1,0.5,5.5,1.6c0.4,0.2,0.5,0.5,0.5,1.1
				c0,0.7-0.7,1.4-1.4,1.4c-0.4,0-0.7-0.2-0.9-0.4c-1.1-0.7-2.1-1.2-3.9-1.2c-3,0-5.3,2.7-5.3,5.7l0,0c0,3.4,2.1,5.7,5.5,5.7
				c1.6,0,2.8-0.5,3.9-1.2v-3h-3.2c-0.7,0-1.2-0.5-1.2-1.2c0-0.7,0.5-1.2,1.2-1.2h4.4c0.9,0,1.4,0.5,1.4,1.4v4.3
				c0,0.9-0.4,1.4-1.1,1.8c-1.4,0.9-3.4,1.8-5.7,1.8C299.6,526.7,296.2,523.2,296.2,518.4z"/>
			<path fill="#FFFFFF" d="M197,540.7L197,540.7c0-4.6,3.4-8.3,8.3-8.3c2.5,0,4.1,0.7,5.5,1.8c0.4,0.2,0.5,0.7,0.5,1.1
				c0,0.7-0.7,1.4-1.4,1.4c-0.4,0-0.7-0.2-0.9-0.4c-1.1-0.9-2.3-1.4-3.9-1.4c-3,0-5.3,2.5-5.3,5.7l0,0c0,3.2,2.3,5.7,5.3,5.7
				c1.8,0,2.8-0.5,4.1-1.6c0.2-0.2,0.5-0.4,0.9-0.4c0.7,0,1.4,0.5,1.4,1.2c0,0.4-0.2,0.7-0.5,1.1c-1.6,1.4-3.2,2.1-5.8,2.1
				C200.6,549,197,545.3,197,540.7z"/>
			<path fill="#FFFFFF" d="M213.7,540.7L213.7,540.7c0-4.6,3.5-8.3,8.5-8.3c5,0,8.3,3.7,8.3,8.3l0,0c0,4.6-3.5,8.3-8.5,8.3
				C217,549,213.7,545.1,213.7,540.7z M227.5,540.7L227.5,540.7c0-3.2-2.3-5.8-5.5-5.8c-3.2,0-5.5,2.5-5.5,5.7l0,0
				c0,3.2,2.3,5.7,5.5,5.7C225.4,546.4,227.5,543.7,227.5,540.7z"/>
			<path fill="#FFFFFF" d="M233.9,534c0-0.7,0.7-1.4,1.4-1.4h0.4c0.7,0,1.1,0.4,1.4,0.9l8,10.5V534c0-0.7,0.7-1.4,1.4-1.4
				c0.7,0,1.4,0.5,1.4,1.4v13.5c0,0.7-0.5,1.4-1.4,1.4h-0.2c-0.7,0-1.1-0.4-1.4-0.9l-8.3-10.8v10.3c0,0.7-0.7,1.4-1.4,1.4
				c-0.7,0-1.4-0.7-1.4-1.4V534H233.9z"/>
			<path fill="#FFFFFF" d="M251.8,546.9c-0.4-0.2-0.5-0.7-0.5-1.1c0-0.7,0.5-1.2,1.4-1.2c0.4,0,0.7,0.2,0.9,0.2
				c1.4,1.1,2.8,1.6,4.4,1.6c1.8,0,2.8-0.9,2.8-1.9l0,0c0-1.2-0.7-1.8-3.7-2.5c-3.4-0.9-5.3-1.8-5.3-4.8l0,0c0-2.8,2.3-4.6,5.5-4.6
				c1.9,0,3.7,0.5,5.1,1.4c0.4,0.2,0.7,0.5,0.7,1.1c0,0.7-0.5,1.2-1.4,1.2c-0.4,0-0.5,0-0.7-0.2c-1.2-0.9-2.5-1.2-3.7-1.2
				c-1.6,0-2.7,0.9-2.7,1.9l0,0c0,1.2,0.7,1.8,3.9,2.5c3.4,0.9,5.1,2.1,5.1,4.8l0,0c0,3-2.3,4.8-5.7,4.8
				C255.7,548.9,253.5,548.2,251.8,546.9z"/>
			<path fill="#FFFFFF" d="M266.6,541.8v-8c0-0.7,0.7-1.4,1.4-1.4c0.7,0,1.4,0.5,1.4,1.4v7.8c0,3,1.6,4.6,4.1,4.6s4.1-1.4,4.1-4.4
				v-8c0-0.7,0.7-1.4,1.4-1.4c0.7,0,1.4,0.5,1.4,1.4v7.8c0,4.8-2.7,7.3-6.9,7.3C269.3,548.9,266.6,546.6,266.6,541.8z"/>
			<path fill="#FFFFFF" d="M284.4,533.8c0-0.7,0.7-1.4,1.4-1.4c0.7,0,1.4,0.5,1.4,1.4V546h7.3c0.7,0,1.2,0.5,1.2,1.2
				c0,0.7-0.5,1.2-1.2,1.2h-8.7c-0.9,0-1.4-0.5-1.4-1.4L284.4,533.8L284.4,533.8z"/>
			<path fill="#FFFFFF" d="M300.1,535.2h-3.9c-0.7,0-1.2-0.5-1.2-1.2c0-0.7,0.5-1.2,1.2-1.2h10.6c0.7,0,1.2,0.5,1.2,1.2
				c0,0.7-0.5,1.2-1.2,1.2H303v12.2c0,0.7-0.7,1.4-1.4,1.4s-1.4-0.7-1.4-1.4V535.2z"/>
			<path fill="#FFFFFF" d="M308.4,546.9l6-13.3c0.4-0.7,0.9-1.2,1.8-1.2h0.2c0.9,0,1.4,0.4,1.6,1.2l6,13.3c0.2,0.2,0.2,0.4,0.2,0.5
				c0,0.7-0.5,1.4-1.4,1.4c-0.7,0-1.1-0.4-1.4-1.1l-1.2-3h-7.8l-1.4,3.2c-0.2,0.5-0.7,0.9-1.2,0.9c-0.7,0-1.2-0.5-1.2-1.2
				C308.3,547.3,308.3,547.1,308.4,546.9z M318.9,542.3l-2.8-6.6l-2.8,6.6H318.9z"/>
			<path fill="#FFFFFF" d="M327,534c0-0.7,0.7-1.4,1.4-1.4h0.4c0.7,0,1.1,0.4,1.4,0.9l8,10.5V534c0-0.7,0.7-1.4,1.4-1.4
				c0.7,0,1.4,0.5,1.4,1.4v13.5c0,0.7-0.5,1.4-1.4,1.4h-0.2c-0.7,0-1.1-0.4-1.4-0.9l-8.3-10.8v10.3c0,0.7-0.7,1.4-1.4,1.4
				c-0.7,0-1.4-0.7-1.4-1.4V534H327z"/>
			<path fill="#FFFFFF" d="M344.6,540.7L344.6,540.7c0-4.6,3.4-8.3,8.3-8.3c2.5,0,4.1,0.7,5.5,1.8c0.4,0.2,0.5,0.7,0.5,1.1
				c0,0.7-0.7,1.4-1.4,1.4c-0.4,0-0.7-0.2-0.9-0.4c-1.1-0.9-2.3-1.4-3.9-1.4c-3,0-5.3,2.5-5.3,5.7l0,0c0,3.2,2.3,5.7,5.3,5.7
				c1.8,0,2.8-0.5,4.1-1.6c0.2-0.2,0.5-0.4,0.9-0.4c0.7,0,1.4,0.5,1.4,1.2c0,0.4-0.2,0.7-0.5,1.1c-1.6,1.4-3.2,2.1-5.8,2.1
				C348.1,549,344.6,545.3,344.6,540.7z"/>
			<path fill="#FFFFFF" d="M366.7,542.5l-5.5-7.6c-0.2-0.4-0.4-0.5-0.4-1.1c0-0.7,0.7-1.4,1.4-1.4c0.7,0,1.1,0.4,1.4,0.9l4.4,6.6
				l4.6-6.6c0.4-0.5,0.7-0.9,1.4-0.9c0.9,0,1.4,0.7,1.4,1.4c0,0.4-0.2,0.7-0.4,1.1l-5.5,7.6v5c0,0.7-0.7,1.4-1.4,1.4
				c-0.7,0-1.4-0.7-1.4-1.4v-5H366.7z"/>
		</g>
	</g>
</g>
</svg>
