<?xml version="1.0" encoding="utf-8"?>
<!-- Generator: Adobe Illustrator 18.1.0, SVG Export Plug-In . SVG Version: 6.00 Build 0)  -->
<svg version="1.1" id="Layer_1" xmlns="http://www.w3.org/2000/svg" xmlns:xlink="http://www.w3.org/1999/xlink" x="0px" y="0px"
	 viewBox="203.2 306.3 187.3 228.4" enable-background="new 203.2 306.3 187.3 228.4" xml:space="preserve">
<g id="Covers_x2B_footers">
</g>
<g id="Screens">
</g>
<g id="Design">
</g>
<g id="text">
	<path fill="#FFFFFF" d="M385.3,306.8c-2.5,0-4.4,1.6-5.1,3.7l-13.8,41.3l-13.5-40.9c-0.7-2.5-2.7-4.3-5.3-4.3h-0.7
		c-2.7,0-4.4,1.8-5.3,4.3l-13.5,40.9l-13.8-41.1c-0.7-2.3-2.7-3.9-5.1-3.9c-2.8,0-5.3,2.3-5.3,5.1c0,0.7,0.2,1.4,0.4,2.1l0.7,1.9
		c-5.5-6-13.6-9.7-23.2-9.7c-18.4,0-31.4,14.2-31.4,31v0.2c0,1.2,0.2,2.5,0.2,3.7c-2.1-2.3-5.1-3.9-8.5-5.1
		c4.4-2.3,8.5-6.2,8.5-13.3v-0.4c0-4.1-1.4-7.3-4.1-9.9c-3.4-3.4-8.9-5.3-15.6-5.3h-21.6c-3,0-5.3,2.3-5.3,5.3v49.3
		c0,3,2.3,5.3,5.3,5.3h22.3c12.8,0,21.4-5.3,22.1-15.2c5,9.6,15.1,16.3,27.6,16.3c17.9,0,30.6-13.5,31.4-29.6l9,25.2
		c1.1,2.7,2.8,4.4,5.5,4.4h1.1c2.5,0,4.6-1.6,5.5-4.4l13.3-39.2l13.3,39.2c0.9,2.7,2.8,4.4,5.3,4.4h1.1c2.5,0,4.6-1.8,5.5-4.4
		l17.7-49.6c0.2-0.5,0.5-1.4,0.5-2.1C390.5,309.2,388,306.8,385.3,306.8z M214.4,316.6h15.1c6.7,0,10.5,2.8,10.5,7.6v0.2
		c0,5.5-4.6,8.1-11.3,8.1h-14.2V316.6z M243.2,349.5c0,5.3-4.4,8.1-11.5,8.1h-17.4v-16.5H231C239.2,341.4,243.2,344.4,243.2,349.5
		L243.2,349.5z M301.7,337.3c0,11.7-8.3,21.1-20.2,21.1c-11.9,0-20.4-9.6-20.4-21.3V337c0-11.7,8.3-21.1,20.2-21.1
		C293.4,315.9,301.7,325.6,301.7,337.3L301.7,337.3z"/>
	<path fill="#FFFFFF" d="M376.1,385.3c-2.8,0-5.1,2.3-5.1,5.1v23.4L341,375.1c-1.4-1.8-2.8-3-5.5-3h-1.1c-3,0-5.3,2.5-5.3,5.3v26.2
		l-12.4-27.8c-1.2-2.7-3.2-4.3-6.2-4.3H310c-3,0-5.1,1.6-6.4,4.3l-17.7,39.5l-14-39.2c-1.1-2.7-2.8-4.4-5.5-4.4h-1.1
		c-2.5,0-4.6,1.6-5.5,4.4l-13.3,39.2l-13.3-39.2c-0.9-2.7-2.8-4.4-5.3-4.4H227c-2.5,0-4.6,1.8-5.5,4.4l-17.7,49.6
		c-0.2,0.5-0.5,1.4-0.5,2.1c0,2.8,2.5,5,5.1,5c2.5,0,4.4-1.6,5.1-3.7l13.8-41.3l13.5,40.9c0.7,2.5,2.7,4.3,5.3,4.3h0.7
		c2.7,0,4.4-1.8,5.3-4.3l13.6-40.7l13.8,41.1c0.7,2.3,2.7,3.9,5.1,3.9c0.7,0,1.4-0.2,2.1-0.4c1.6-0.4,3-1.4,3.7-3.2l5-11.5h29.1
		l4.8,10.8c0.5,2.1,2.1,3.7,4.4,4.1c0,0,0,0,0.2,0c0.2,0,0.4,0,0.5,0l0,0c0,0,0,0,0.2,0c2.8,0,5-2.3,5-5v-0.2v-37.9l30.8,39.9
		c1.4,1.9,3,3.2,5.5,3.2h0.4c2.8,0,5.1-2.3,5.1-5.1v-37C381.3,387.6,379,385.3,376.1,385.3z M299.6,408.5l10.5-24.1l10.5,24.3h-20.9
		V408.5z"/>
	<g>
		<path fill="#FFFFFF" d="M225,437.6h-15.4h-1.1c-2.7,0-4.8,2.1-4.8,4.8s2.1,4.8,4.8,4.8h1.4h5h9.2c8,0,12.6,3.5,12.6,10.1v0.2
			c0,6.2-4.8,10.1-12.4,10.1c-10.8,0-2.1,9.4-2.1,9.4l14.7,18.8c1.2,1.6,2.8,2.8,5.1,2.8c2.7,0,5.1-1.9,5.1-5c0-1.6-0.7-2.8-1.8-4.1
			l-11.7-14.7c8.1-2.5,13.8-8.3,13.8-18.1v-0.2c0-5.3-1.8-9.7-5-13.1C238.6,439.9,232.6,437.6,225,437.6z"/>
		<path fill="#FFFFFF" d="M257.6,437.2c-3,0-5.3,2.3-5.3,5.3v51c0,3,2.3,5.3,5.3,5.3c3,0,5.3-2.3,5.3-5.3v-51
			C262.9,439.5,260.6,437.2,257.6,437.2z"/>
		<path fill="#FFFFFF" d="M299.6,488.6h-20.4v-46.1c0-3-2.3-5.3-5.3-5.3s-5.3,2.3-5.3,5.3v50.5c0,3,2.3,5.3,5.3,5.3h25.7
			c2.7,0,4.8-2.1,4.8-4.8C304.4,490.7,302.2,488.6,299.6,488.6z"/>
		<path fill="#FFFFFF" d="M384.6,437.1c-2.3,0-3.9,1.2-5.1,3.2l-17.2,24.4L346,441c-1.2-1.8-2.8-3.2-5-3.2c-0.4-0.2-0.9-0.2-1.2-0.2
			h-26.2c-3,0-5.3,2.3-5.3,5.3v50c0,3,2.3,5.3,5.3,5.3h26.6c2.7,0,4.8-2.1,4.8-4.8s-2.1-4.8-4.8-4.8h-21.4v-16.3h17
			c2.7,0,4.8-2.1,4.8-4.6c0-2.7-2.1-4.8-4.8-4.8h-17v-15.8H337l20,27.6v18.8c0,3,2.3,5.3,5.3,5.3c3,0,5.3-2.3,5.3-5.3v-19l20.7-28.3
			c0.7-1.1,1.4-2.3,1.4-3.9C389.9,439.4,387.8,437.1,384.6,437.1z"/>
	</g>
	<g>
		<path fill="#FFFFFF" d="M203.9,517.5c0-0.9,0.7-1.6,1.6-1.6s1.6,0.7,1.6,1.6v6.2h8.7v-6.2c0-0.9,0.7-1.6,1.6-1.6s1.6,0.7,1.6,1.6
			v15.2c0,0.9-0.7,1.6-1.6,1.6s-1.6-0.7-1.6-1.6v-6.2h-8.5v6.2c0,0.9-0.7,1.6-1.6,1.6s-1.6-0.7-1.6-1.6v-15.2H203.9z"/>
		<path fill="#FFFFFF" d="M223.8,532.7v-15.1c0-0.9,0.7-1.6,1.6-1.6H236c0.7,0,1.4,0.7,1.4,1.4c0,0.9-0.7,1.4-1.4,1.4h-9v4.8h7.8
			c0.7,0,1.4,0.7,1.4,1.4s-0.7,1.4-1.4,1.4H227v5h9.2c0.7,0,1.4,0.7,1.4,1.4c0,0.9-0.7,1.4-1.4,1.4h-10.8
			C224.5,534.3,223.8,533.6,223.8,532.7z"/>
		<path fill="#FFFFFF" d="M240.2,532.2l6.7-15.1c0.4-0.9,1.1-1.2,1.9-1.2h0.2c0.9,0,1.6,0.5,1.9,1.2l6.7,15.1
			c0.2,0.2,0.2,0.5,0.2,0.7c0,0.9-0.7,1.6-1.6,1.6c-0.7,0-1.2-0.4-1.6-1.1l-1.4-3.4h-8.9l-1.6,3.5c-0.2,0.7-0.9,1.1-1.4,1.1
			c-0.9,0-1.4-0.7-1.4-1.4C240.1,532.7,240.1,532.4,240.2,532.2z M252.1,527.1l-3.2-7.4l-3.2,7.4H252.1z"/>
		<path fill="#FFFFFF" d="M261.3,517.5c0-0.9,0.7-1.6,1.6-1.6s1.6,0.7,1.6,1.6v13.8h8.3c0.9,0,1.4,0.7,1.4,1.4
			c0,0.9-0.7,1.4-1.4,1.4h-9.9c-0.9,0-1.6-0.7-1.6-1.6V517.5L261.3,517.5z"/>
		<path fill="#FFFFFF" d="M279.4,519.1H275c-0.9,0-1.4-0.7-1.4-1.4c0-0.9,0.7-1.4,1.4-1.4h12c0.9,0,1.4,0.7,1.4,1.4
			c0,0.9-0.7,1.4-1.4,1.4h-4.4v13.8c0,0.9-0.7,1.6-1.6,1.6s-1.6-0.7-1.6-1.6L279.4,519.1L279.4,519.1z"/>
		<path fill="#FFFFFF" d="M291.8,517.5c0-0.9,0.7-1.6,1.6-1.6s1.6,0.7,1.6,1.6v6.2h8.7v-6.2c0-0.9,0.7-1.6,1.6-1.6s1.6,0.7,1.6,1.6
			v15.2c0,0.9-0.7,1.6-1.6,1.6s-1.6-0.7-1.6-1.6v-6.2H295v6.2c0,0.9-0.7,1.6-1.6,1.6s-1.6-0.7-1.6-1.6V517.5z"/>
		<path fill="#FFFFFF" d="M310.8,525.3L310.8,525.3c0-5.3,3.9-9.4,9.4-9.4c2.8,0,4.6,0.9,6.2,2.1c0.4,0.2,0.7,0.7,0.7,1.2
			c0,0.9-0.7,1.6-1.6,1.6c-0.4,0-0.7-0.2-0.9-0.4c-1.2-1.1-2.7-1.6-4.4-1.6c-3.5,0-6,2.8-6,6.4l0,0c0,3.5,2.5,6.4,6,6.4
			c1.9,0,3.2-0.7,4.6-1.8c0.2-0.2,0.5-0.4,0.9-0.4c0.9,0,1.6,0.7,1.6,1.4c0,0.5-0.2,0.9-0.5,1.1c-1.8,1.6-3.7,2.5-6.6,2.5
			C314.6,534.5,310.8,530.4,310.8,525.3z"/>
		<path fill="#FFFFFF" d="M329.7,532.2l6.7-15.1c0.4-0.9,1.1-1.2,1.9-1.2h0.2c0.9,0,1.6,0.5,1.9,1.2l6.7,15.1
			c0.2,0.2,0.2,0.5,0.2,0.7c0,0.9-0.7,1.6-1.6,1.6c-0.7,0-1.2-0.4-1.6-1.1l-1.4-3.4H334l-1.6,3.5c-0.2,0.7-0.9,1.1-1.4,1.1
			c-0.9,0-1.4-0.7-1.4-1.4C329.5,532.7,329.5,532.4,329.7,532.2z M341.8,527.1l-3.2-7.4l-3.2,7.4H341.8z"/>
		<path fill="#FFFFFF" d="M351,517.7c0-0.9,0.7-1.6,1.6-1.6h6.6c2.3,0,4.1,0.7,5.3,1.8c0.9,1.1,1.6,2.3,1.6,3.9l0,0
			c0,2.8-1.8,4.6-4.1,5.5l3.5,4.4c0.4,0.4,0.5,0.7,0.5,1.2c0,0.9-0.7,1.4-1.6,1.4c-0.7,0-1.2-0.4-1.6-0.9l-4.4-5.7h-4.1v5
			c0,0.9-0.7,1.6-1.6,1.6s-1.6-0.7-1.6-1.6v-15.1H351z M358.8,525.1c2.3,0,3.7-1.2,3.7-3l0,0c0-1.9-1.4-3-3.7-3h-4.6v6.2h4.6V525.1z
			"/>
		<path fill="#FFFFFF" d="M369.7,532.7v-15.1c0-0.9,0.7-1.6,1.6-1.6H382c0.7,0,1.4,0.7,1.4,1.4c0,0.9-0.7,1.4-1.4,1.4h-9v4.8h7.8
			c0.7,0,1.4,0.7,1.4,1.4s-0.7,1.4-1.4,1.4h-7.8v5h9.2c0.7,0,1.4,0.7,1.4,1.4c0,0.9-0.7,1.4-1.4,1.4h-10.8
			C370.5,534.3,369.7,533.6,369.7,532.7z"/>
	</g>
</g>
</svg>
