<?xml version="1.0" encoding="utf-8"?>
<!-- Generator: Adobe Illustrator 18.1.0, SVG Export Plug-In . SVG Version: 6.00 Build 0)  -->
<svg version="1.1" id="Layer_1" xmlns="http://www.w3.org/2000/svg" xmlns:xlink="http://www.w3.org/1999/xlink" x="0px" y="0px"
	 viewBox="288.8 417.1 13 7.8" enable-background="new 288.8 417.1 13 7.8" xml:space="preserve">
<g>
	<path fill="#FFFFFF" d="M301.8,423.1v-0.6c0.1-1.3-2.6-1.7-4-1.1c0.9,0.4,1.4,1.1,1.4,2l0,0C300.2,423.5,301,423.4,301.8,423.1
		L301.8,423.1z M298.5,424.2c-2.1,0.8-4.3,0.8-6.4,0v-0.8c-0.1-2.5,6.7-2.5,6.5,0L298.5,424.2L298.5,424.2z M293.6,418.4
		c0,0.4,0.1,1.5,0.3,1.9c0.2,0.3,0.6,0.7,1.1,0.8c0.2,0,0.3,0,0.5,0c0.5-0.1,1-0.5,1.2-0.8c0.2-0.4,0.3-1.5,0.3-1.9
		c-0.1-0.9-0.9-1.3-1.7-1.3C294.4,417.1,293.7,417.5,293.6,418.4L293.6,418.4z M298.1,418.7c0.1-0.6,0.6-1,1.3-1
		c0.6,0,1.2,0.3,1.3,1c0,0.3,0,1.1-0.2,1.4c-0.1,0.3-0.5,0.5-0.9,0.6c-0.2,0-0.2,0-0.4,0c-0.4,0-0.7-0.3-0.9-0.5
		C298.2,419.9,298.1,419.1,298.1,418.7L298.1,418.7z M288.8,423.1c0.8,0.3,1.7,0.4,2.6,0.4l0,0c-0.1-0.9,0.5-1.6,1.4-2
		c-1.4-0.6-4.1-0.3-4,1V423.1L288.8,423.1z M292.5,418.7c0,0.3,0,1.1-0.2,1.4c-0.1,0.3-0.4,0.6-0.8,0.7c-0.2,0-0.2,0-0.4,0
		c-0.4-0.1-0.7-0.4-0.9-0.6c-0.2-0.3-0.2-1.1-0.2-1.5c0.1-0.6,0.6-1,1.3-1C291.9,417.8,292.5,418.1,292.5,418.7z"/>
</g>
</svg>
