<?xml version="1.0" encoding="utf-8"?>
<!-- Generator: Adobe Illustrator 18.1.0, SVG Export Plug-In . SVG Version: 6.00 Build 0)  -->
<svg version="1.1" id="Layer_1" xmlns="http://www.w3.org/2000/svg" xmlns:xlink="http://www.w3.org/1999/xlink" x="0px" y="0px"
	 viewBox="0 0 12.8 7.6" enable-background="new 0 0 12.8 7.6" xml:space="preserve">
<path fill-rule="evenodd" clip-rule="evenodd" fill="#FFFFFF" d="M12.7,5.9l0-0.6c0.1-1.3-2.5-1.7-3.9-1.1c0.9,0.4,1.4,1.1,1.4,2
	l0,0C11.1,6.3,11.9,6.2,12.7,5.9L12.7,5.9z M9.5,7C7.4,7.8,5.3,7.8,3.2,7l0-0.8c-0.1-2.4,6.5-2.4,6.4,0L9.5,7L9.5,7z M4.7,1.3
	c0,0.4,0.1,1.5,0.3,1.9C5.2,3.5,5.6,3.9,6.1,4c0.2,0,0.3,0,0.5,0c0.5-0.1,1-0.5,1.2-0.8C8,2.8,8.1,1.7,8.1,1.3C8,0.4,7.2,0,6.4,0
	C5.5,0,4.8,0.4,4.7,1.3L4.7,1.3z M9.1,1.6c0.1-0.6,0.6-1,1.3-1c0.6,0,1.2,0.3,1.3,1c0,0.3,0,1.1-0.2,1.4c-0.1,0.3-0.5,0.5-0.9,0.6
	c-0.2,0-0.2,0-0.4,0C9.8,3.6,9.5,3.3,9.3,3.1C9.2,2.8,9.1,2,9.1,1.6L9.1,1.6z M0,5.9c0.8,0.3,1.7,0.4,2.5,0.4l0,0
	c-0.1-0.9,0.5-1.6,1.4-2C2.5,3.7-0.1,4,0,5.3L0,5.9L0,5.9z M3.6,1.6c0,0.3,0,1.1-0.2,1.4C3.3,3.3,3,3.6,2.6,3.7c-0.2,0-0.2,0-0.4,0
	C1.8,3.6,1.5,3.3,1.3,3.1C1.1,2.8,1.1,2,1.1,1.6c0.1-0.6,0.6-1,1.3-1C3,0.7,3.6,1,3.6,1.6z"/>
<g>
</g>
<g>
</g>
<g>
</g>
<g>
</g>
<g>
</g>
<g>
</g>
</svg>
