<?xml version="1.0" encoding="utf-8"?>
<!-- Generator: Adobe Illustrator 18.1.0, SVG Export Plug-In . SVG Version: 6.00 Build 0)  -->
<svg version="1.1" id="Layer_1" xmlns="http://www.w3.org/2000/svg" xmlns:xlink="http://www.w3.org/1999/xlink" x="0px" y="0px"
	 viewBox="0 0 130 153.9" enable-background="new 0 0 130 153.9" xml:space="preserve">
<rect x="49.8" y="117.2" transform="matrix(0.7071 -0.7071 0.7071 0.7071 -74.5723 84.7202)" fill="#615E60" width="30.4" height="30.4"/>
<rect x="0" y="0" fill="#615E60" width="130" height="133.9"/>
<g>
	<path fill="#FFFFFF" d="M21.5,23.4c0-1.5,1.1-2.6,2.6-2.6h10.5c3.3,0,6,0.9,7.6,2.6c1.3,1.3,2,2.9,2,4.8v0.1c0,3.5-2,5.4-4.2,6.5
		c3.4,1.2,5.8,3.1,5.8,7.1V42c0,5.2-4.3,8-10.8,8H24.1c-1.5,0-2.6-1.1-2.6-2.6V23.4z M33.6,33.1c3.3,0,5.5-1.3,5.5-4V29
		c0-2.3-1.8-3.7-5.1-3.7h-7.4v7.8H33.6z M35.1,45.4c3.5,0,5.6-1.4,5.6-4v-0.1c0-2.5-2-3.9-6-3.9h-8.1v8H35.1z"/>
	<path fill="#FFFFFF" d="M44.1,35.5L44.1,35.5c0-8.3,6.3-15.2,15.3-15.2s15.2,6.8,15.2,15v0.1c0,8.2-6.3,15.1-15.3,15.1
		S44.1,43.7,44.1,35.5z M69.2,35.5L69.2,35.5c0-5.8-4.1-10.5-9.9-10.5s-9.8,4.6-9.8,10.3v0.1c0,5.7,4.1,10.3,9.9,10.3
		S69.2,41.1,69.2,35.5z"/>
	<path fill="#FFFFFF" d="M68.5,30.8c-0.1-0.3-0.2-0.7-0.2-1c0-1.4,1.5-3.3,2.6-2.5c0.8,0.6,2.5,2.9,3.1,3.6l3.9,11.6l6.6-20
		c0.4-1.2,1.3-2,2.6-2h0.4c1.3,0,2.2,0.8,2.6,2l6.6,20l6.7-20.1c0.4-1,1.3-1.8,2.5-1.8c1.4,0,2.5,1.1,2.5,2.5c0,0.3-0.1,0.8-0.3,1
		l-8.6,24.2c-0.5,1.3-1.4,2.1-2.7,2.1h-0.5c-1.2,0-2.2-0.8-2.6-2.1l-6.5-19l-6.5,19c-0.5,1.3-1.4,2.1-2.7,2.1h-0.5
		c-1.3,0-2.2-0.8-2.7-2.1L68.5,30.8z"/>
	<path fill="#FFFFFF" d="M63.7,78.4c0.1,0.3,0.2,0.7,0.2,1c0,1.4-1.2,2.5-2.6,2.5c-1.2,0-2.2-0.8-2.5-1.9l-6.7-20l-6.6,20
		c-0.4,1.2-1.3,2-2.6,2h-0.4c-1.3,0-2.2-0.8-2.6-2l-6.6-20L26.7,80c-0.4,1-1.3,1.8-2.5,1.8c-1.4,0-2.5-1.1-2.5-2.5
		c0-0.3,0.1-0.8,0.3-1l8.6-24.2c0.5-1.3,1.4-2.1,2.7-2.1h0.5c1.2,0,2.2,0.8,2.6,2.1l6.5,19l6.5-19c0.5-1.3,1.4-2.1,2.7-2.1h0.5
		c1.3,0,2.2,0.8,2.7,2.1L63.7,78.4z"/>
	<path fill="#FFFFFF" d="M59.7,78.2L70.5,54c0.6-1.3,1.6-2.1,3.1-2.1h0.3c1.5,0,2.5,0.8,3,2.1l10.8,24.2c0.2,0.4,0.3,0.8,0.3,1.1
		c0,1.4-1,2.5-2.4,2.5c-1.2,0-2-0.7-2.5-1.8l-2.4-5.5H66.6l-2.5,5.6c-0.4,1-1.3,1.6-2.4,1.6c-1.3,0-2.4-1-2.4-2.4
		C59.4,79,59.5,78.6,59.7,78.2z M78.8,70l-5.1-11.8L68.5,70H78.8z"/>
	<path fill="#FFFFFF" d="M83,54.8c0-1.4,1.1-2.6,2.6-2.6h0.5c1.2,0,2,0.6,2.7,1.5l14.6,18.9V61.1c0-1.4,1.1-2.5,2.5-2.5
		c1.4,0,2.5,1.1,2.5,2.5v18c0,1.4-1.1,2.5-2.5,2.5h-0.2c-1.2,0-2-0.6-2.7-1.5L88,60.7v18.5c0,1.4-1.1,2.5-2.5,2.5
		c-1.4,0-2.5-1.1-2.5-2.5V54.8z"/>
	<path fill="#FFFFFF" d="M24,88.4c-1.3,0-2.3-1-2.3-2.3c0-1.3,1-2.3,2.3-2.3l0.5,0h7.4c3.7,0,6.5,1.1,8.4,2.9
		c1.5,1.6,2.4,3.8,2.4,6.3v0.1c0,4.7-2.7,7.5-6.6,8.7l5.6,7c0.5,0.6,0.8,1.2,0.8,2c0,1.4-1.2,2.4-2.5,2.4c-1.2,0-1.9-0.5-2.5-1.3
		l-7.1-9c0,0-4.1-4.5,1-4.5c3.7,0,6-1.9,6-4.9v-0.1c0-3.1-2.3-4.8-6-4.8H27l-2.4,0L24,88.4z"/>
	<path fill="#FFFFFF" d="M45,86.1c0-1.4,1.1-2.5,2.6-2.5c1.4,0,2.5,1.1,2.5,2.5v24.5c0,1.4-1.1,2.5-2.5,2.5c-1.5,0-2.6-1.1-2.6-2.5
		V86.1z"/>
	<path fill="#FFFFFF" d="M52.8,86.1c0-1.4,1.1-2.5,2.6-2.5c1.4,0,2.5,1.1,2.5,2.5v22.2h8c1.3,0,2.3,1,2.3,2.3c0,1.3-1,2.3-2.3,2.3
		H55.4c-1.5,0-2.6-1.1-2.6-2.6V86.1z"/>
	<path fill="#FFFFFF" d="M70.4,110.4v-24c0-1.5,1.1-2.6,2.6-2.6h11.8c1.3,0,2.3,1,2.3,2.3c0,1.3-1,2.3-2.3,2.3h-9.2V96h7.4
		c1.2,0,2.3,1,2.3,2.3c0,1.3-1,2.3-2.3,2.3h-7.4v7.8H85c1.3,0,2.3,1,2.3,2.3c0,1.3-1,2.3-2.3,2.3H73C71.5,113,70.4,111.8,70.4,110.4
		z"/>
	<path fill="#FFFFFF" d="M92.5,101.6l-9.8-13.5c-0.3-0.5-0.6-1.1-0.6-1.8c0-1.4,1.1-2.5,2.6-2.5c1.1,0,1.9,0.6,2.5,1.5l7.8,11.4
		l8.3-11.8c0.6-0.9,1.4-1.5,2.5-1.5c1.5,0,2.5,1.1,2.5,2.5c0,0.7-0.3,1.3-0.7,1.8l-10,13.6v9.1c0,1.4-1.1,2.5-2.6,2.5
		c-1.4,0-2.5-1.1-2.5-2.5V101.6z"/>
</g>
<g>
</g>
<g>
</g>
<g>
</g>
<g>
</g>
<g>
</g>
<g>
</g>
</svg>
