<?xml version="1.0" encoding="utf-8"?>
<!-- Generator: Adobe Illustrator 18.1.0, SVG Export Plug-In . SVG Version: 6.00 Build 0)  -->
<svg version="1.1" id="Layer_1" xmlns="http://www.w3.org/2000/svg" xmlns:xlink="http://www.w3.org/1999/xlink" x="0px" y="0px"
	 viewBox="30.5 236.9 368.4 368.4" enable-background="new 30.5 236.9 368.4 368.4" xml:space="preserve">
<g>
	<path fill="#615E60" d="M70.6,277C17.1,330.6,17.1,417.4,70.6,471c45.8,45.8,116,52.2,168.6,20l105,105c12.5,12.5,32.8,12.5,45.3,0
		c12.5-12.5,12.5-32.8,0-45.3L284.4,445.6c32.2-52.6,25.8-122.8-20-168.6C210.9,223.6,124.2,223.5,70.6,277z M233.4,439.8
		c-36.4,36.4-95.3,36.4-131.6,0c-36.4-36.4-36.4-95.3,0-131.6c36.4-36.4,95.3-36.4,131.6,0C269.8,344.5,269.8,403.4,233.4,439.8z"/>
</g>
</svg>
