<?xml version="1.0" encoding="utf-8"?>
<!-- Generator: Adobe Illustrator 18.1.0, SVG Export Plug-In . SVG Version: 6.00 Build 0)  -->
<svg version="1.1" id="Layer_1" xmlns="http://www.w3.org/2000/svg" xmlns:xlink="http://www.w3.org/1999/xlink" x="0px" y="0px"
	 viewBox="0 219.3 595.3 403.5" enable-background="new 0 219.3 595.3 403.5" xml:space="preserve">
<path fill="#00ADEF" d="M287.9,366.8c19.5-58.4,43.3-95.2,69.3-123.4c19.5-19.5,30.3-26,19.5-4.3c4.3-4.3,13-8.7,17.3-13
	c32.5-15.2,30.3-2.2,8.7,10.8c60.6-21.6,58.4,6.5-6.5,19.5c52,0,108.2,34.6,125.5,103.9c2.2,8.7,0,8.7,8.7,10.8
	c21.6,4.3,43.3,4.3,62.8-2.2c-2.2,15.2-21.6,23.8-52,30.3c-10.8,2.2-13,2.2,0,4.3c17.3,4.3,34.6,4.3,54.1,4.3
	c-15.2,17.3-39,26-69.3,26c-19.5,67.1-62.8,114.7-116.9,145C279.2,650.4,93.1,639.6,0,509.7c60.6,47.6,151.5,58.4,220.8-8.7
	c-43.3,0-56.3-32.5-21.6-49.8c-32.5,0-54.1-10.8-67.1-30.3c-4.3-4.3-4.3-6.5,4.3-10.8c8.7-6.5,19.5-8.7,32.5-8.7
	c-36.8-10.8-56.3-28.1-64.9-52c-2.2-6.5-2.2-6.5,6.5-8.7s17.3-2.2,28.1-4.3c-26-15.2-43.3-34.6-47.6-58.4c-4.3-19.5,0-13,15.2-8.7
	C175.3,295.4,246.8,323.5,287.9,366.8"/>
</svg>
