<?xml version="1.0" encoding="utf-8"?>
<!-- Generator: Adobe Illustrator 18.1.0, SVG Export Plug-In . SVG Version: 6.00 Build 0)  -->
<svg version="1.1" id="Layer_1" xmlns="http://www.w3.org/2000/svg" xmlns:xlink="http://www.w3.org/1999/xlink" x="0px" y="0px"
	 viewBox="0 0 148.1 17.1" enable-background="new 0 0 148.1 17.1" xml:space="preserve">
<g>
	<path fill="#FFFFFF" d="M0,1.7c0-0.8,0.6-1.5,1.5-1.5h6c1.9,0,3.4,0.5,4.3,1.5c0.7,0.7,1.1,1.6,1.1,2.7v0c0,2-1.1,3-2.4,3.7
		c1.9,0.7,3.3,1.8,3.3,4v0c0,3-2.4,4.5-6.1,4.5H1.5c-0.8,0-1.5-0.6-1.5-1.5V1.7z M6.8,7.3C8.7,7.3,10,6.5,10,5v0
		c0-1.3-1-2.1-2.9-2.1H2.9v4.4H6.8z M7.7,14.3c2,0,3.2-0.8,3.2-2.3v0c0-1.4-1.1-2.2-3.4-2.2H2.9v4.5H7.7z"/>
	<path fill="#FFFFFF" d="M12.8,8.6L12.8,8.6c0-4.7,3.6-8.6,8.7-8.6s8.6,3.9,8.6,8.5v0c0,4.7-3.6,8.6-8.7,8.6S12.8,13.3,12.8,8.6z
		 M27.1,8.6L27.1,8.6c0-3.3-2.3-5.9-5.6-5.9s-5.6,2.6-5.6,5.8v0c0,3.2,2.3,5.9,5.6,5.9S27.1,11.8,27.1,8.6z"/>
	<path fill="#FFFFFF" d="M26.5,6c-0.1-0.2-0.1-0.4-0.1-0.6c0-0.8,0.7-1.4,1.5-1.4c0.7,0,1.3,0.4,1.4,1.1l2.5,7.6l3.7-11.3
		c0.2-0.7,0.7-1.2,1.5-1.2h0.2c0.7,0,1.3,0.5,1.5,1.2l3.7,11.3l3.8-11.4c0.2-0.6,0.7-1,1.4-1c0.8,0,1.4,0.6,1.4,1.4
		c0,0.2-0.1,0.4-0.1,0.6l-4.9,13.7c-0.3,0.7-0.8,1.2-1.5,1.2h-0.3c-0.7,0-1.2-0.4-1.5-1.2L37.2,5.1l-3.7,10.8
		c-0.3,0.8-0.8,1.2-1.5,1.2h-0.3c-0.7,0-1.2-0.4-1.5-1.2L26.5,6z"/>
	<path fill="#FFFFFF" d="M69.9,15c0.1,0.2,0.1,0.4,0.1,0.6c0,0.8-0.7,1.4-1.5,1.4c-0.7,0-1.3-0.4-1.4-1.1L63.3,4.6l-3.7,11.3
		c-0.2,0.7-0.7,1.2-1.5,1.2h-0.2c-0.7,0-1.3-0.5-1.5-1.2L52.7,4.6L48.9,16c-0.2,0.6-0.7,1-1.4,1c-0.8,0-1.4-0.6-1.4-1.4
		c0-0.2,0.1-0.4,0.1-0.6l4.9-13.7c0.3-0.7,0.8-1.2,1.5-1.2h0.3c0.7,0,1.2,0.4,1.5,1.2l3.7,10.8l3.7-10.8c0.3-0.8,0.8-1.2,1.5-1.2
		h0.3c0.7,0,1.2,0.4,1.5,1.2L69.9,15z"/>
	<path fill="#FFFFFF" d="M67.7,14.9l6.1-13.7C74.1,0.5,74.7,0,75.5,0h0.1c0.8,0,1.4,0.4,1.7,1.2l6.1,13.7c0.1,0.2,0.2,0.4,0.2,0.6
		c0,0.8-0.6,1.4-1.4,1.4c-0.7,0-1.2-0.4-1.4-1l-1.3-3.1h-8L70.2,16c-0.2,0.6-0.7,0.9-1.3,0.9c-0.8,0-1.3-0.6-1.3-1.3
		C67.5,15.4,67.5,15.2,67.7,14.9z M78.5,10.3l-2.9-6.7l-2.9,6.7H78.5z"/>
	<path fill="#FFFFFF" d="M80.9,1.7c0-0.8,0.6-1.5,1.5-1.5h0.3c0.7,0,1.1,0.4,1.5,0.9l8.3,10.7V5.3c0-0.8,0.6-1.4,1.4-1.4
		c0.8,0,1.4,0.6,1.4,1.4v10.2c0,0.8-0.6,1.4-1.4,1.4h-0.1c-0.7,0-1.1-0.4-1.5-0.9L83.7,5v10.5c0,0.8-0.6,1.4-1.4,1.4
		c-0.8,0-1.4-0.6-1.4-1.4V1.7z"/>
	<path fill="#FFFFFF" d="M93.4,2.9c-0.7,0-1.3-0.6-1.3-1.3s0.6-1.3,1.3-1.3l0.3,0H98c2.1,0,3.7,0.6,4.8,1.7c0.9,0.9,1.4,2.1,1.4,3.6
		v0c0,2.6-1.5,4.3-3.8,4.9l3.2,4c0.3,0.4,0.5,0.7,0.5,1.1c0,0.8-0.7,1.3-1.4,1.3c-0.7,0-1.1-0.3-1.4-0.8l-4-5.1c0,0-2.3-2.6,0.6-2.6
		c2.1,0,3.4-1.1,3.4-2.8v0c0-1.8-1.3-2.7-3.4-2.7h-2.5l-1.4,0L93.4,2.9z"/>
	<path fill="#FFFFFF" d="M105.7,1.6c0-0.8,0.6-1.4,1.5-1.4c0.8,0,1.4,0.6,1.4,1.4v13.9c0,0.8-0.6,1.4-1.4,1.4
		c-0.8,0-1.5-0.6-1.5-1.4V1.6z"/>
	<path fill="#FFFFFF" d="M110.5,1.6c0-0.8,0.6-1.4,1.5-1.4c0.8,0,1.4,0.6,1.4,1.4v12.6h7.5c0.7,0,1.3,0.6,1.3,1.3s-0.6,1.3-1.3,1.3
		h-8.9c-0.8,0-1.5-0.6-1.5-1.5V1.6z"/>
	<path fill="#FFFFFF" d="M123.6,15.4V1.7c0-0.8,0.6-1.5,1.5-1.5h9.6c0.7,0,1.3,0.6,1.3,1.3c0,0.7-0.6,1.3-1.3,1.3h-8.2v4.3h7.1
		c0.7,0,1.3,0.6,1.3,1.3c0,0.7-0.6,1.3-1.3,1.3h-7.1v4.4h8.3c0.7,0,1.3,0.6,1.3,1.3c0,0.7-0.6,1.3-1.3,1.3h-9.7
		C124.3,16.8,123.6,16.2,123.6,15.4z"/>
	<path fill="#FFFFFF" d="M139.1,10.4l-5.5-7.7c-0.2-0.3-0.3-0.6-0.3-1c0-0.8,0.6-1.4,1.5-1.4c0.6,0,1.1,0.4,1.4,0.9l4.5,6.5l4.7-6.7
		c0.4-0.5,0.8-0.9,1.4-0.9c0.9,0,1.4,0.6,1.4,1.4c0,0.4-0.2,0.8-0.4,1l-5.6,7.7v5.2c0,0.8-0.6,1.4-1.5,1.4c-0.8,0-1.4-0.6-1.4-1.4
		V10.4z"/>
</g>
<g>
</g>
<g>
</g>
<g>
</g>
<g>
</g>
<g>
</g>
<g>
</g>
</svg>
