<?xml version="1.0" encoding="utf-8"?>
<!-- Generator: Adobe Illustrator 18.1.0, SVG Export Plug-In . SVG Version: 6.00 Build 0)  -->
<svg version="1.1" id="Layer_1" xmlns="http://www.w3.org/2000/svg" xmlns:xlink="http://www.w3.org/1999/xlink" x="0px" y="0px"
	 viewBox="0 386.6 595.7 69.1" enable-background="new 0 386.6 595.7 69.1" xml:space="preserve">
<g>
	<path fill="#FFFFFF" d="M0,393.4c0-3.2,2.4-6,6-6h24.1c7.6,0,13.7,2,17.3,6c2.8,2.8,4.4,6.4,4.4,10.9l0,0c0,8-4.4,12.1-9.6,14.9
		c7.6,2.8,13.3,7.2,13.3,16.1l0,0c0,12.1-9.6,18.1-24.5,18.1H6c-3.2,0-6-2.4-6-6V393.4z M27.3,415.9c7.6,0,12.9-3.2,12.9-9.2l0,0
		c0-5.2-4-8.4-11.7-8.4H11.7v17.7H27.3z M30.9,444.1c8,0,12.9-3.2,12.9-9.2l0,0c0-5.6-4.4-8.8-13.7-8.8H11.7v18.1H30.9z"/>
	<path fill="#FFFFFF" d="M51.4,421.1L51.4,421.1c0-18.9,14.5-34.6,35-34.6s34.6,15.7,34.6,34.2l0,0c0,18.9-14.5,34.6-35,34.6
		S51.4,440,51.4,421.1z M108.9,421.1L108.9,421.1c0-13.3-9.2-23.7-22.5-23.7s-22.5,10.5-22.5,23.3l0,0c0,12.9,9.2,23.7,22.5,23.7
		S108.9,434,108.9,421.1z"/>
	<path fill="#FFFFFF" d="M106.5,410.7c-0.4-0.8-0.4-1.6-0.4-2.4c0-3.2,2.8-5.6,6-5.6c2.8,0,5.2,1.6,5.6,4.4l10,30.5l14.9-45.4
		c0.8-2.8,2.8-4.8,6-4.8h0.8c2.8,0,5.2,2,6,4.8l14.9,45.4l15.3-45.8c0.8-2.4,2.8-4,5.6-4c3.2,0,5.6,2.4,5.6,5.6
		c0,0.8-0.4,1.6-0.4,2.4l-19.7,55.1c-1.2,2.8-3.2,4.8-6,4.8h-1.2c-2.8,0-4.8-1.6-6-4.8l-14.1-43.8l-14.9,43.4
		c-1.2,3.2-3.2,4.8-6,4.8h-1.2c-2.8,0-4.8-1.6-6-4.8L106.5,410.7z"/>
	<path fill="#FFFFFF" d="M281,446.9c0.4,0.8,0.4,1.6,0.4,2.4c0,3.2-2.8,5.6-6,5.6c-2.8,0-5.2-1.6-5.6-4.4l-15.3-45.4l-14.9,45.4
		c-0.8,2.8-2.8,4.8-6,4.8h-0.8c-2.8,0-5.2-2-6-4.8l-14.9-45.4l-15.3,45.8c-0.8,2.4-2.8,4-5.6,4c-3.2,0-5.6-2.4-5.6-5.6
		c0-0.8,0.4-1.6,0.4-2.4l19.7-55.1c1.2-2.8,3.2-4.8,6-4.8h1.2c2.8,0,4.8,1.6,6,4.8l14.9,43.4l14.9-43.4c1.2-3.2,3.2-4.8,6-4.8h1.2
		c2.8,0,4.8,1.6,6,4.8L281,446.9z"/>
	<path fill="#FFFFFF" d="M272.1,446.5l24.5-55.1c1.2-2.8,3.6-4.8,6.8-4.8h0.4c3.2,0,5.6,1.6,6.8,4.8l24.5,55.1
		c0.4,0.8,0.8,1.6,0.8,2.4c0,3.2-2.4,5.6-5.6,5.6c-2.8,0-4.8-1.6-5.6-4l-5.2-12.5h-32.2l-5.2,12.9c-0.8,2.4-2.8,3.6-5.2,3.6
		c-3.2,0-5.2-2.4-5.2-5.2C271.3,448.5,271.3,447.7,272.1,446.5z M315.5,428L303.9,401L292.2,428H315.5z"/>
	<path fill="#FFFFFF" d="M325.2,393.4c0-3.2,2.4-6,6-6h1.2c2.8,0,4.4,1.6,6,3.6l33.4,43v-26.1c0-3.2,2.4-5.6,5.6-5.6
		s5.6,2.4,5.6,5.6v41c0,3.2-2.4,5.6-5.6,5.6H377c-2.8,0-4.4-1.6-6-3.6l-34.6-44.2v42.2c0,3.2-2.4,5.6-5.6,5.6s-5.6-2.4-5.6-5.6
		L325.2,393.4L325.2,393.4z"/>
	<path fill="#FFFFFF" d="M375.4,398.2c-2.8,0-5.2-2.4-5.2-5.2c0-2.8,2.4-5.2,5.2-5.2h1.2h17.3c8.4,0,14.9,2.4,19.3,6.8
		c3.6,3.6,5.6,8.4,5.6,14.5l0,0c0,10.5-6,17.3-15.3,19.7l12.9,16.1c1.2,1.6,2,2.8,2,4.4c0,3.2-2.8,5.2-5.6,5.2
		c-2.8,0-4.4-1.2-5.6-3.2l-16.1-20.5c0,0-9.2-10.5,2.4-10.5c8.4,0,13.7-4.4,13.7-11.3l0,0c0-7.2-5.2-10.9-13.7-10.9h-10h-5.6H375.4z
		"/>
	<path fill="#FFFFFF" d="M424.9,393c0-3.2,2.4-5.6,6-5.6c3.2,0,5.6,2.4,5.6,5.6v55.9c0,3.2-2.4,5.6-5.6,5.6s-6-2.4-6-5.6V393z"/>
	<path fill="#FFFFFF" d="M444.1,393c0-3.2,2.4-5.6,6-5.6c3.2,0,5.6,2.4,5.6,5.6v50.6H486c2.8,0,5.2,2.4,5.2,5.2s-2.4,5.2-5.2,5.2
		h-35.8c-3.2,0-6-2.4-6-6V393z"/>
	<path fill="#FFFFFF" d="M496.8,448.5v-55.1c0-3.2,2.4-6,6-6h38.6c2.8,0,5.2,2.4,5.2,5.2c0,2.8-2.4,5.2-5.2,5.2h-33v17.3H537
		c2.8,0,5.2,2.4,5.2,5.2c0,2.8-2.4,5.2-5.2,5.2h-28.5v17.7h33.4c2.8,0,5.2,2.4,5.2,5.2s-2.4,5.2-5.2,5.2h-39
		C499.6,454.1,496.8,451.7,496.8,448.5z"/>
	<path fill="#FFFFFF" d="M559.1,428.4L537,397.4c-0.8-1.2-1.2-2.4-1.2-4c0-3.2,2.4-5.6,6-5.6c2.4,0,4.4,1.6,5.6,3.6l18.1,26.1
		l18.9-26.9c1.6-2,3.2-3.6,5.6-3.6c3.6,0,5.6,2.4,5.6,5.6c0,1.6-0.8,3.2-1.6,4l-22.5,30.9v20.9c0,3.2-2.4,5.6-6,5.6
		c-3.2,0-5.6-2.4-5.6-5.6v-20.1H559.1z"/>
</g>
</svg>
