<?xml version="1.0" encoding="utf-8"?>
<!-- Generator: Adobe Illustrator 18.1.0, SVG Export Plug-In . SVG Version: 6.00 Build 0)  -->
<svg version="1.1" id="Layer_1" xmlns="http://www.w3.org/2000/svg" xmlns:xlink="http://www.w3.org/1999/xlink" x="0px" y="0px"
	 viewBox="0 0 17.5 17.5" enable-background="new 0 0 17.5 17.5" xml:space="preserve">
<path fill="#615E60" d="M12.3,8.8l4.5-4.5c1-1,1-2.6,0-3.5s-2.6-1-3.5,0L8.8,5.2L4.3,0.7c-1-1-2.6-1-3.5,0s-1,2.6,0,3.5l4.5,4.5
	l-4.5,4.5c-1,1-1,2.6,0,3.5c0.5,0.5,1.1,0.7,1.8,0.7s1.3-0.2,1.8-0.7l4.5-4.5l4.5,4.5c0.5,0.5,1.1,0.7,1.8,0.7s1.3-0.2,1.8-0.7
	c1-1,1-2.6,0-3.5L12.3,8.8z"/>
<g>
</g>
<g>
</g>
<g>
</g>
<g>
</g>
<g>
</g>
<g>
</g>
</svg>
