<?xml version="1.0" encoding="utf-8"?>
<!-- Generator: Adobe Illustrator 18.1.0, SVG Export Plug-In . SVG Version: 6.00 Build 0)  -->
<svg version="1.1" id="Layer_1" xmlns="http://www.w3.org/2000/svg" xmlns:xlink="http://www.w3.org/1999/xlink" x="0px" y="0px"
	 viewBox="0 0 104.7 249.5" enable-background="new 0 0 104.7 249.5" xml:space="preserve">
<g>
	<polygon fill="#0584B2" points="22.4,249.5 24.7,240.4 20,240.4 	"/>
	<polygon fill="#0584B2" points="82.7,249.5 85,240.4 80.3,240.4 	"/>
	<path fill="#0584B2" d="M103.3,150.9h-4.9c-0.8,0-1.4,1-1.4,2.2v0.7H80.1l-9.7-74c5.5-5,9-12.2,9-20.2c0-12.5-8.4-22.9-19.8-26.1
		c0.5-0.5,0.8-1.2,0.8-2c0-1.3-0.9-2.4-2.1-2.8V2c0-1.1-1.1-2-2.4-2h-7.1c-1.3,0-2.4,0.9-2.4,2v26.7c-1.2,0.3-2.1,1.4-2.1,2.8
		c0,0.8,0.3,1.4,0.8,2c-11.4,3.2-19.8,13.7-19.8,26.1c0,8,3.5,15.2,9,20.2l-9.7,74H7.8v-0.7c0-1.2-0.6-2.2-1.4-2.2H1.4
		c-0.8,0-1.4,1-1.4,2.2v5.4c0,1.2,0.6,2.2,1.4,2.2h4.9c0.8,0,1.4-1,1.4-2.2v-0.7h16.3l-9.3,70.7l5,9.8h4.8l1.4-10.8
		c2.8-0.7,4.9-3.3,4.9-6.3c0-2.4-1.3-4.5-3.3-5.7l7.6-57.7h14.5v7.1c0,1.5,1.2,2.8,2.8,2.8c1.5,0,2.8-1.2,2.8-2.8v-7.1h14.5
		l7.6,57.7c-2,1.1-3.3,3.2-3.3,5.7c0,3,2.1,5.6,4.9,6.3l1.4,10.8h4.8l5-9.8l-9.3-70.7h16.3v0.7c0,1.2,0.6,2.2,1.4,2.2h4.9
		c0.8,0,1.4-1,1.4-2.2v-5.4C104.7,151.9,104.1,150.9,103.3,150.9z M52.4,52.9c3,0,5.4,2.4,5.4,5.4c0,3-2.4,5.4-5.4,5.4
		c-3,0-5.4-2.4-5.4-5.4C46.9,55.4,49.4,52.9,52.4,52.9z M55.1,153.9v-10.3c0-1.5-1.2-2.8-2.8-2.8c-1.5,0-2.8,1.2-2.8,2.8v10.3h-14
		l8.9-68.3c2.5,0.7,5.1,1.1,7.8,1.1c2.7,0,5.3-0.4,7.8-1.1l8.9,68.3H55.1z"/>
</g>
<g>
</g>
<g>
</g>
<g>
</g>
<g>
</g>
<g>
</g>
<g>
</g>
</svg>
