<?xml version="1.0" encoding="utf-8"?>
<!-- Generator: Adobe Illustrator 18.1.0, SVG Export Plug-In . SVG Version: 6.00 Build 0)  -->
<svg version="1.1" id="Layer_1" xmlns="http://www.w3.org/2000/svg" xmlns:xlink="http://www.w3.org/1999/xlink" x="0px" y="0px"
	 viewBox="0 0 249 118.8" enable-background="new 0 0 249 118.8" xml:space="preserve">
<path fill="#E86334" d="M189.7,0c-21.8,0-40.9,11.8-51.3,29.3l-8.1,0c-3.2,0-5.8,2.6-5.8,5.8l0,18.4c0,3.2,2.6,5.8,5.8,5.8l-0.1,53
	l-23.2,0v-6.2h-4v6.2l-21.1,0v-6.1h-4v6.1l-21.1,0v-6.1h-4v6.1l-21.1,0v-6.1h-4v6.1l-20,0l0-15.6l-7.5,0l0,15.6l0,6.3l7.5,0
	l122.7,0.2l59.3,0.1l59.3,0.1l0.1-59.3C249,26.6,222.5,0,189.7,0z M188.7,70c-3.9,0-7-3.2-7-7c0-3.9,3.2-7.1,7-7.1
	c3.9,0,7,3.2,7,7.1C195.8,66.9,192.6,70,188.7,70z"/>
<g>
</g>
<g>
</g>
<g>
</g>
<g>
</g>
<g>
</g>
<g>
</g>
</svg>
