<?xml version="1.0" encoding="utf-8"?>
<!-- Generator: Adobe Illustrator 18.1.0, SVG Export Plug-In . SVG Version: 6.00 Build 0)  -->
<svg version="1.1" id="Layer_1" xmlns="http://www.w3.org/2000/svg" xmlns:xlink="http://www.w3.org/1999/xlink" x="0px" y="0px"
	 viewBox="0 0 595.3 841.9" enable-background="new 0 0 595.3 841.9" xml:space="preserve">
<path fill="#FFFFFF" d="M418.4,422.6l153.1-153.1c34-34,34-88.4,0-119.1s-88.4-34-119.1,0L299.3,300.2L146.3,147.1
	c-34-34-88.4-34-119.1,0s-34,88.4,0,119.1l153.1,153.1L27.2,572.3c-34,34-34,88.4,0,119.1c17,17,37.4,23.8,61.2,23.8
	s44.2-6.8,61.2-23.8l153.1-153.1l153.1,153.1c17,17,37.4,23.8,61.2,23.8c23.8,0,44.2-6.8,61.2-23.8c34-34,34-88.4,0-119.1
	L418.4,422.6z"/>
</svg>
