<?xml version="1.0" encoding="utf-8"?>
<!-- Generator: Adobe Illustrator 18.1.0, SVG Export Plug-In . SVG Version: 6.00 Build 0)  -->
<svg version="1.1" id="Layer_1" xmlns="http://www.w3.org/2000/svg" xmlns:xlink="http://www.w3.org/1999/xlink" x="0px" y="0px"
	 viewBox="0 0 6.5 9.8" enable-background="new 0 0 6.5 9.8" xml:space="preserve">
<path fill="#FFFFFF" d="M3.2,9.8c-1-1.8-2-3.5-2.9-5.3c-0.7-1.3-0.2-2.9,0.9-3.8c1.1-0.9,2.7-1,3.9-0.1c1.2,0.8,1.7,2.4,1,3.7
	C5.3,6.2,4.2,7.9,3.2,9.8z M1.2,3.2c0,1.2,0.9,2.1,2.1,2.1c1.1,0,2-0.9,2-2.1c0-1.2-0.9-2.1-2.1-2.1C2.1,1.1,1.2,2.1,1.2,3.2z"/>
<g>
</g>
<g>
</g>
<g>
</g>
<g>
</g>
<g>
</g>
<g>
</g>
</svg>
