<?xml version="1.0" encoding="utf-8"?>
<!-- Generator: Adobe Illustrator 18.1.0, SVG Export Plug-In . SVG Version: 6.00 Build 0)  -->
<svg id="share-facebook" version="1.1" id="Layer_1" xmlns="http://www.w3.org/2000/svg" xmlns:xlink="http://www.w3.org/1999/xlink" x="0px" y="0px"
	 viewBox="0 0 18.8 18.8" enable-background="new 0 0 18.8 18.8" xml:space="preserve">
<g class="icon">
	<path fill="#625F61" d="M9.4,18.8C4.2,18.8,0,14.6,0,9.4S4.2,0,9.4,0s9.4,4.2,9.4,9.4S14.6,18.8,9.4,18.8z M9.4,0.7
		c-4.8,0-8.7,3.9-8.7,8.7s3.9,8.7,8.7,8.7s8.7-3.9,8.7-8.7S14.2,0.7,9.4,0.7z"/>

<path fill="#625F61" d="M7.6,5.8c0,0.3,0,1.4,0,1.4h-1v1.7h1v5.2h2.1V8.9h1.4c0,0,0.1-0.8,0.2-1.7
	c-0.2,0-1.6,0-1.6,0s0-1,0-1.2c0-0.2,0.2-0.4,0.5-0.4c0.2,0,0.7,0,1.2,0c0-0.2,0-1.1,0-1.8c-0.6,0-1.3,0-1.6,0
	C7.6,3.8,7.6,5.5,7.6,5.8z"/>
</g>
</svg>
