<?xml version="1.0" encoding="utf-8"?>
<!-- Generator: Adobe Illustrator 18.1.0, SVG Export Plug-In . SVG Version: 6.00 Build 0)  -->
<svg version="1.1" id="Layer_1" xmlns="http://www.w3.org/2000/svg" xmlns:xlink="http://www.w3.org/1999/xlink" x="0px" y="0px"
	 viewBox="0 0 18.8 18.8" enable-background="new 0 0 18.8 18.8" xml:space="preserve">
<g>
	<g>
		<path fill="#625F61" d="M9.4,18.8C4.2,18.8,0,14.6,0,9.4S4.2,0,9.4,0s9.4,4.2,9.4,9.4S14.6,18.8,9.4,18.8z M9.4,0.7
			c-4.8,0-8.7,3.9-8.7,8.7s3.9,8.7,8.7,8.7s8.7-3.9,8.7-8.7S14.2,0.7,9.4,0.7z"/>
	</g>
	<g>
		<path fill="#625F61" d="M11.6,6.8h0.8L11.1,11c0,0.1-0.1,0.3-0.1,0.4c0,0.1,0,0.3,0,0.4c0,0.1,0,0.1,0.1,0.2
			c0.1,0.1,0.1,0.1,0.3,0.1c0.3,0,0.5-0.1,0.8-0.3c0.3-0.2,0.5-0.4,0.7-0.7c0.2-0.3,0.4-0.6,0.5-1c0.1-0.4,0.2-0.8,0.2-1.2
			c0-0.6-0.1-1.1-0.4-1.5c-0.2-0.5-0.5-0.9-0.9-1.2c-0.4-0.3-0.8-0.6-1.3-0.8C10.5,5.1,10,5,9.4,5C8.8,5,8.2,5.1,7.6,5.4
			C7.1,5.7,6.6,6,6.2,6.4c-0.4,0.4-0.8,0.9-1,1.5C4.9,8.5,4.8,9.1,4.8,9.7c0,0.6,0.1,1.2,0.4,1.8c0.2,0.6,0.6,1.1,1,1.5
			c0.4,0.4,0.9,0.8,1.5,1c0.6,0.3,1.2,0.4,1.8,0.4c0.7,0,1.4-0.2,2.1-0.5s1.2-0.8,1.6-1.3h0.9c-0.2,0.4-0.5,0.8-0.9,1.1
			c-0.3,0.3-0.7,0.6-1.1,0.8c-0.4,0.2-0.8,0.4-1.3,0.5c-0.5,0.1-0.9,0.2-1.4,0.2c-0.8,0-1.5-0.1-2.1-0.4c-0.7-0.3-1.3-0.7-1.8-1.2
			c-0.5-0.5-0.9-1.1-1.2-1.8c-0.3-0.7-0.4-1.4-0.4-2.2c0-0.8,0.1-1.5,0.4-2.2C4.6,6.9,5,6.3,5.5,5.8C6,5.3,6.6,4.9,7.3,4.6
			C8,4.4,8.7,4.2,9.4,4.2c0.7,0,1.3,0.1,1.9,0.3C12,4.8,12.5,5.1,13,5.5c0.5,0.4,0.8,0.9,1.1,1.4c0.3,0.6,0.4,1.2,0.4,1.8
			c0,0.6-0.1,1.2-0.3,1.7c-0.2,0.5-0.5,1-0.9,1.3c-0.3,0.4-0.7,0.6-1.1,0.8c-0.4,0.2-0.8,0.3-1.1,0.3c-0.3,0-0.5-0.1-0.7-0.2
			c-0.2-0.1-0.3-0.4-0.3-0.7h0c-0.2,0.2-0.5,0.4-0.8,0.6c-0.3,0.2-0.6,0.3-1.1,0.3c-0.6,0-1.1-0.2-1.5-0.6c-0.4-0.4-0.6-0.9-0.6-1.6
			c0-0.5,0.1-1,0.2-1.5C6.5,8.7,6.7,8.2,7,7.8c0.3-0.4,0.7-0.7,1.1-1C8.5,6.7,9,6.5,9.5,6.5c0.4,0,0.7,0.1,1,0.3
			C10.8,7,11,7.3,11.2,7.7h0L11.6,6.8z M10.7,8.9c0-0.2,0-0.4-0.1-0.6c-0.1-0.2-0.2-0.3-0.3-0.5c-0.1-0.1-0.2-0.2-0.4-0.3
			C9.8,7.5,9.7,7.4,9.5,7.4c-0.4,0-0.7,0.1-1,0.3C8.2,8,8,8.2,7.7,8.5c-0.2,0.3-0.4,0.7-0.5,1C7.1,9.9,7,10.3,7,10.6
			c0,0.4,0.1,0.8,0.4,1C7.7,11.9,8,12,8.4,12c0.3,0,0.6-0.1,0.9-0.3c0.3-0.2,0.5-0.5,0.7-0.8c0.2-0.3,0.4-0.7,0.5-1
			C10.7,9.5,10.7,9.2,10.7,8.9z"/>
	</g>
</g>
<g>
</g>
<g>
</g>
<g>
</g>
<g>
</g>
<g>
</g>
<g>
</g>
</svg>
