<?xml version="1.0" encoding="utf-8"?>
<!-- Generator: Adobe Illustrator 18.1.0, SVG Export Plug-In . SVG Version: 6.00 Build 0)  -->
<svg id="share-twitter" version="1.1" id="Layer_1" xmlns="http://www.w3.org/2000/svg" xmlns:xlink="http://www.w3.org/1999/xlink" x="0px" y="0px"
	 viewBox="0 0 18.8 18.8" enable-background="new 0 0 18.8 18.8" xml:space="preserve">
	<g id="icon">
	<path fill="#615E60" d="M9.4,18.8C4.2,18.8,0,14.6,0,9.4S4.2,0,9.4,0s9.4,4.2,9.4,9.4S14.6,18.8,9.4,18.8z M9.4,0.7
		c-4.8,0-8.7,3.9-8.7,8.7s3.9,8.7,8.7,8.7s8.7-3.9,8.7-8.7S14.2,0.7,9.4,0.7z"/>
	<path fill="#615E60" d="M9.3,8.3c0.3-1,0.7-1.6,1.2-2.1c0.3-0.3,0.5-0.5,0.3-0.1C10.8,6.1,11,6,11.1,5.9c0.5-0.3,0.5,0,0.1,0.2
		c1-0.4,1,0.1-0.1,0.3c0.9,0,1.8,0.6,2.1,1.7c0,0.2,0,0.1,0.2,0.2c0.4,0.1,0.7,0.1,1,0c0,0.2-0.4,0.4-0.9,0.5c-0.2,0-0.2,0,0,0.1
		c0.3,0.1,0.6,0.1,0.9,0.1c-0.3,0.3-0.7,0.4-1.2,0.4c-0.3,1.1-1,1.9-2,2.5c-2.2,1.2-5.3,1-6.9-1.2c1,0.8,2.6,1,3.7-0.1
		c-0.7,0-0.9-0.5-0.3-0.8c-0.6,0-0.9-0.2-1.1-0.5C6.6,9.1,6.6,9.1,6.7,9c0.1-0.1,0.3-0.1,0.5-0.2C6.7,8.7,6.3,8.4,6.2,8
		c0-0.1,0-0.1,0.1-0.2c0.1,0,0.3-0.1,0.5-0.1C6.3,7.5,6,7.2,6,6.8C5.9,6.5,6,6.5,6.2,6.6C7.4,7.1,8.6,7.6,9.3,8.3"/>
	</g>
</svg>
