<?xml version="1.0" encoding="utf-8"?>
<!-- Generator: Adobe Illustrator 18.1.0, SVG Export Plug-In . SVG Version: 6.00 Build 0)  -->
<svg version="1.1" id="Layer_1" xmlns="http://www.w3.org/2000/svg" xmlns:xlink="http://www.w3.org/1999/xlink" x="0px" y="0px"
	 viewBox="0 0 27.5 18.6" enable-background="new 0 0 27.5 18.6" xml:space="preserve">
<path fill="#D0AE82" d="M13.3,6.8c0.9-2.7,2-4.4,3.2-5.7c0.9-0.9,1.4-1.2,0.9-0.2c0.2-0.2,0.6-0.4,0.8-0.6c1.5-0.7,1.4-0.1,0.4,0.5
	c2.8-1,2.7,0.3-0.3,0.9c2.4,0,5,1.6,5.8,4.8c0.1,0.4,0,0.4,0.4,0.5c1,0.2,2,0.2,2.9-0.1c-0.1,0.7-1,1.1-2.4,1.4
	c-0.5,0.1-0.6,0.1,0,0.2c0.8,0.2,1.6,0.2,2.5,0.2c-0.7,0.8-1.8,1.2-3.2,1.2c-0.9,3.1-2.9,5.3-5.4,6.7C12.9,19.9,4.3,19.4,0,13.4
	c2.8,2.2,7,2.7,10.2-0.4c-2,0-2.6-1.5-1-2.3c-1.5,0-2.5-0.5-3.1-1.4C5.9,9.1,5.9,9,6.3,8.8c0.4-0.3,0.9-0.4,1.5-0.4
	C6.1,7.9,5.2,7.1,4.8,6C4.7,5.7,4.7,5.7,5.1,5.6c0.4-0.1,0.8-0.1,1.3-0.2c-1.2-0.7-2-1.6-2.2-2.7C4,1.8,4.2,2.1,4.9,2.3
	C8.1,3.5,11.4,4.8,13.3,6.8"/>
<g>
</g>
<g>
</g>
<g>
</g>
<g>
</g>
<g>
</g>
<g>
</g>
</svg>
